{"glyphs":{"0":{"ha":814,"x_min":51,"x_max":761,"o":"m 408 -12 q 149 121 246 -12 q 51 501 51 254 q 150 883 51 753 q 408 1013 249 1013 q 665 881 569 1013 q 761 501 761 749 q 717 220 761 335 q 593 47 672 106 q 408 -12 514 -12 m 407 85 q 584 188 521 85 q 647 501 647 290 q 584 815 647 713 q 407 917 521 917 q 229 815 293 917 q 165 501 165 713 q 229 188 165 290 q 407 85 293 85 "},"1":{"ha":543,"x_min":47,"x_max":396,"o":"m 283 0 l 283 751 l 47 751 l 47 838 l 85 838 q 233 883 186 838 q 286 1001 279 928 l 396 1001 l 396 0 l 283 0 "},"2":{"ha":785,"x_min":63,"x_max":715,"o":"m 63 0 l 63 22 q 91 167 63 104 q 166 279 119 229 q 269 371 213 329 q 381 451 325 413 q 483 531 436 490 q 558 617 529 571 q 586 722 586 664 q 531 863 586 811 q 383 915 475 915 q 228 857 288 915 q 174 699 169 799 l 65 699 q 103 865 63 794 q 217 975 143 936 q 390 1014 292 1014 q 555 978 485 1014 q 664 878 625 942 q 703 729 703 814 q 669 591 703 651 q 581 481 635 531 q 466 388 528 432 q 347 301 404 344 q 249 208 289 257 q 200 100 210 160 l 715 100 l 715 0 l 63 0 "},"3":{"ha":803,"x_min":57,"x_max":728,"o":"m 388 -12 q 211 28 286 -12 q 97 140 136 68 q 58 307 57 211 l 168 307 q 226 147 165 208 q 388 86 286 86 q 550 140 489 86 q 611 285 611 194 q 555 426 611 379 q 407 472 499 472 l 304 472 l 304 561 l 403 561 q 547 613 497 561 q 596 742 596 665 q 540 870 596 825 q 392 915 483 915 q 233 856 289 915 q 175 699 176 797 l 67 699 q 106 865 65 794 q 220 975 146 936 q 394 1014 294 1014 q 626 943 540 1014 q 713 753 713 872 q 668 608 713 668 q 550 524 624 547 l 550 517 q 681 433 635 497 q 728 276 728 369 q 685 125 728 190 q 567 24 643 60 q 388 -12 490 -12 "},"4":{"ha":871,"x_min":64,"x_max":818,"o":"m 567 0 l 567 254 l 64 254 l 64 344 l 526 1001 l 679 1001 l 679 349 l 818 349 l 818 254 l 679 254 l 679 0 l 567 0 m 182 349 l 567 349 l 567 893 l 182 349 "},"5":{"ha":829,"x_min":75,"x_max":756,"o":"m 407 -12 q 232 27 307 -12 q 116 139 157 67 q 75 306 75 211 l 186 306 q 246 148 185 208 q 408 88 307 88 q 579 154 519 88 q 639 326 639 221 q 576 506 639 442 q 411 569 514 569 q 280 535 335 569 q 201 446 225 500 l 96 446 l 118 1001 l 707 1001 l 707 903 l 217 903 l 201 563 l 208 560 q 301 637 240 608 q 433 665 361 665 q 604 623 532 665 q 716 506 676 581 q 756 331 756 431 q 713 151 756 228 q 592 31 669 74 q 407 -12 514 -12 "},"6":{"ha":819,"x_min":67,"x_max":757,"o":"m 418 -11 q 154 109 242 -11 q 67 454 67 229 q 158 878 67 743 q 432 1014 250 1014 q 653 944 571 1014 q 746 757 735 875 l 638 757 q 572 874 628 833 q 432 915 515 915 q 276 860 331 915 q 201 706 222 804 q 179 478 181 607 l 186 478 q 279 604 210 557 q 449 651 349 651 q 610 611 540 651 q 718 497 679 571 q 757 324 757 424 q 714 144 757 219 q 594 29 671 69 q 418 -11 518 -11 m 421 88 q 581 153 521 88 q 642 328 642 218 q 582 501 642 438 q 424 564 522 564 q 302 532 353 564 q 224 444 251 500 q 197 319 197 389 q 259 149 197 211 q 421 88 321 88 "},"7":{"ha":811,"x_min":60,"x_max":736,"o":"m 286 0 q 313 280 286 153 q 383 515 339 407 q 485 718 428 622 q 603 903 542 814 l 153 903 l 153 696 l 60 696 l 60 1001 l 736 1001 l 736 921 q 610 728 669 825 q 506 522 551 631 q 433 286 460 414 q 407 0 407 158 l 286 0 "},"8":{"ha":832,"x_min":63,"x_max":769,"o":"m 417 -10 q 231 24 311 -10 q 107 118 151 57 q 63 263 63 179 q 87 372 63 321 q 159 459 111 424 q 276 503 207 494 l 276 508 q 128 592 176 525 q 81 744 81 660 q 171 940 81 867 q 417 1013 261 1013 q 597 978 521 1013 q 713 884 672 944 q 754 743 754 824 q 707 591 754 658 q 558 508 660 524 l 558 503 q 715 425 661 493 q 769 264 769 357 q 725 119 769 181 q 601 24 681 57 q 417 -10 522 -10 m 417 551 q 587 605 535 551 q 639 733 639 658 q 578 869 639 819 q 417 918 517 918 q 256 868 314 918 q 197 733 197 818 q 250 603 197 654 q 417 551 303 551 m 417 88 q 586 140 524 88 q 649 278 649 192 q 592 406 649 356 q 417 457 536 457 q 240 404 296 457 q 185 278 185 351 q 249 138 185 189 q 417 88 313 88 "},"9":{"ha":818,"x_min":60,"x_max":750,"o":"m 394 -11 q 178 58 261 -11 q 85 246 96 128 l 193 246 q 256 131 201 174 q 396 88 311 88 q 549 142 497 88 q 619 296 601 197 q 638 525 638 394 l 632 525 q 539 400 607 449 q 368 351 471 351 q 207 392 276 351 q 99 507 138 433 q 60 678 60 581 q 103 858 60 783 q 223 974 146 933 q 400 1014 300 1014 q 663 894 575 1014 q 750 546 750 774 q 709 218 750 340 q 589 42 668 96 q 394 -11 510 -11 m 393 440 q 560 510 500 440 q 619 683 619 579 q 559 853 619 790 q 396 915 499 915 q 236 849 297 915 q 175 675 175 783 q 235 503 175 565 q 393 440 296 440 "},"A":{"ha":917,"x_min":6,"x_max":913,"o":"m 6 0 l 376 1013 l 542 1013 l 913 0 l 789 0 l 697 250 l 221 250 l 131 0 l 6 0 m 251 344 l 667 344 l 542 683 l 464 901 l 457 901 l 378 683 l 251 344 "},"Á":{"ha":917,"x_min":6,"x_max":913,"o":"m 6 0 l 376 1013 l 542 1013 l 913 0 l 789 0 l 697 250 l 221 250 l 131 0 l 6 0 m 251 344 l 667 344 l 542 683 l 464 901 l 457 901 l 378 683 l 251 344 "},"Â":{"ha":917,"x_min":6,"x_max":913,"o":"m 6 0 l 376 1013 l 542 1013 l 913 0 l 789 0 l 697 250 l 221 250 l 131 0 l 6 0 m 251 344 l 667 344 l 542 683 l 464 901 l 457 901 l 378 683 l 251 344 "},"Ä":{"ha":917,"x_min":6,"x_max":913,"o":"m 6 0 l 376 1013 l 542 1013 l 913 0 l 789 0 l 697 250 l 221 250 l 131 0 l 6 0 m 251 344 l 667 344 l 542 683 l 464 901 l 457 901 l 378 683 l 251 344 "},"À":{"ha":917,"x_min":6,"x_max":913,"o":"m 6 0 l 376 1013 l 542 1013 l 913 0 l 789 0 l 697 250 l 221 250 l 131 0 l 6 0 m 251 344 l 667 344 l 542 683 l 464 901 l 457 901 l 378 683 l 251 344 "},"Å":{"ha":917,"x_min":6,"x_max":913,"o":"m 6 0 l 376 1013 l 542 1013 l 913 0 l 789 0 l 697 250 l 221 250 l 131 0 l 6 0 m 251 344 l 667 344 l 542 683 l 464 901 l 457 901 l 378 683 l 251 344 "},"Ã":{"ha":917,"x_min":6,"x_max":913,"o":"m 6 0 l 376 1013 l 542 1013 l 913 0 l 789 0 l 697 250 l 221 250 l 131 0 l 6 0 m 251 344 l 667 344 l 542 683 l 464 901 l 457 901 l 378 683 l 251 344 "},"Æ":{"ha":1247,"x_min":6,"x_max":1175,"o":"m 6 0 l 376 1013 l 1174 1013 l 1174 908 l 597 908 l 597 567 l 1107 567 l 1107 469 l 597 469 l 597 106 l 1175 106 l 1175 0 l 482 0 l 482 250 l 221 250 l 131 0 l 6 0 m 251 344 l 482 344 l 482 901 l 457 901 l 378 683 l 251 344 "},"B":{"ha":972,"x_min":129,"x_max":911,"o":"m 129 0 l 129 1013 l 583 1013 q 807 941 729 1013 q 885 753 885 869 q 844 610 885 672 q 718 526 803 547 l 718 521 q 863 436 814 503 q 911 282 911 369 q 820 74 911 149 q 571 0 729 0 l 129 0 m 246 565 l 575 565 q 718 613 669 565 q 767 738 767 661 q 710 870 767 824 q 558 917 653 917 l 246 917 l 246 565 m 246 96 l 561 96 q 733 150 676 96 q 790 289 790 204 q 735 424 790 376 q 581 472 679 472 l 246 472 l 246 96 "},"C":{"ha":1061,"x_min":58,"x_max":1003,"o":"m 549 -12 q 291 51 401 -12 q 119 231 181 115 q 58 506 58 347 q 119 780 58 664 q 291 960 181 896 q 549 1024 401 1024 q 767 981 671 1024 q 926 861 864 939 q 1003 678 988 783 l 882 678 q 773 852 861 785 q 549 919 685 919 q 279 810 378 919 q 181 506 181 700 q 225 285 181 378 q 352 142 269 192 q 549 92 435 92 q 774 159 685 92 q 882 339 864 226 l 1003 338 q 928 153 989 232 q 769 31 867 74 q 549 -12 672 -12 "},"Ç":{"ha":1061,"x_min":58,"x_max":1003,"o":"m 549 -12 q 291 51 401 -12 q 119 231 181 115 q 58 506 58 347 q 119 780 58 664 q 291 960 181 896 q 549 1024 401 1024 q 767 981 671 1024 q 926 861 864 939 q 1003 678 988 783 l 882 678 q 773 852 861 785 q 549 919 685 919 q 279 810 378 919 q 181 506 181 700 q 225 285 181 378 q 352 142 269 192 q 549 92 435 92 q 774 159 685 92 q 882 339 864 226 l 1003 338 q 928 153 989 232 q 769 31 867 74 q 549 -12 672 -12 "},"D":{"ha":1039,"x_min":129,"x_max":982,"o":"m 129 0 l 129 1013 l 528 1013 q 772 949 671 1013 q 928 772 874 886 q 982 506 982 658 q 928 240 982 354 q 772 63 874 126 q 528 0 671 0 l 129 0 m 247 104 l 513 104 q 766 208 672 104 q 860 508 860 311 q 765 808 860 707 q 513 908 669 908 l 247 908 l 247 104 "},"Ð":{"ha":1040,"x_min":6,"x_max":982,"o":"m 129 0 l 129 463 l 6 463 l 6 550 l 129 550 l 129 1013 l 528 1013 q 772 949 671 1013 q 928 772 874 886 q 982 506 982 658 q 928 240 982 354 q 772 63 874 126 q 528 0 671 0 l 129 0 m 247 104 l 513 104 q 766 208 672 104 q 860 508 860 311 q 765 808 860 707 q 513 908 669 908 l 247 908 l 247 550 l 472 550 l 472 463 l 247 463 l 247 104 "},"E":{"ha":897,"x_min":129,"x_max":826,"o":"m 129 0 l 129 1013 l 825 1013 l 825 908 l 247 908 l 247 567 l 757 567 l 757 469 l 247 469 l 247 106 l 826 106 l 826 0 l 129 0 "},"É":{"ha":897,"x_min":129,"x_max":826,"o":"m 129 0 l 129 1013 l 825 1013 l 825 908 l 247 908 l 247 567 l 757 567 l 757 469 l 247 469 l 247 106 l 826 106 l 826 0 l 129 0 "},"Ê":{"ha":897,"x_min":129,"x_max":826,"o":"m 129 0 l 129 1013 l 825 1013 l 825 908 l 247 908 l 247 567 l 757 567 l 757 469 l 247 469 l 247 106 l 826 106 l 826 0 l 129 0 "},"Ë":{"ha":897,"x_min":129,"x_max":826,"o":"m 129 0 l 129 1013 l 825 1013 l 825 908 l 247 908 l 247 567 l 757 567 l 757 469 l 247 469 l 247 106 l 826 106 l 826 0 l 129 0 "},"È":{"ha":897,"x_min":129,"x_max":826,"o":"m 129 0 l 129 1013 l 825 1013 l 825 908 l 247 908 l 247 567 l 757 567 l 757 469 l 247 469 l 247 106 l 826 106 l 826 0 l 129 0 "},"F":{"ha":865,"x_min":129,"x_max":822,"o":"m 129 0 l 129 1013 l 822 1013 l 822 908 l 247 908 l 247 549 l 767 549 l 767 450 l 247 450 l 247 0 l 129 0 "},"G":{"ha":1093,"x_min":58,"x_max":1035,"o":"m 550 -12 q 288 53 399 -12 q 118 235 178 118 q 58 506 58 351 q 121 781 58 665 q 295 960 183 897 q 554 1024 407 1024 q 777 981 679 1024 q 936 861 875 939 q 1011 679 997 783 l 889 679 q 828 810 875 757 q 710 890 781 863 q 554 918 639 918 q 357 869 442 918 q 226 728 272 819 q 179 507 179 636 q 225 285 179 378 q 355 141 271 192 q 551 90 439 90 q 737 131 657 90 q 863 247 817 171 q 913 429 908 322 l 568 429 l 568 521 l 1035 521 l 1035 460 q 974 208 1035 314 q 805 45 914 103 q 550 -12 696 -12 "},"H":{"ha":1108,"x_min":129,"x_max":978,"o":"m 129 0 l 129 1013 l 247 1013 l 247 565 l 860 565 l 860 1013 l 978 1013 l 978 0 l 860 0 l 860 461 l 247 461 l 247 0 l 129 0 "},"I":{"ha":378,"x_min":129,"x_max":247,"o":"m 129 0 l 129 1013 l 247 1013 l 247 0 l 129 0 "},"Í":{"ha":378,"x_min":129,"x_max":346,"o":"m 129 0 l 129 1013 l 247 1013 l 247 0 l 129 0 "},"Î":{"ha":378,"x_min":-17,"x_max":394,"o":"m 129 0 l 129 1013 l 247 1013 l 247 0 l 129 0 "},"Ï":{"ha":378,"x_min":13,"x_max":364,"o":"m 129 0 l 129 1013 l 247 1013 l 247 0 l 129 0 "},"Ì":{"ha":378,"x_min":32,"x_max":247,"o":"m 129 0 l 129 1013 l 247 1013 l 247 0 l 129 0 "},"J":{"ha":553,"x_min":21,"x_max":424,"o":"m 154 -11 q 78 -3 113 -11 q 21 18 43 6 l 21 118 q 69 97 40 106 q 135 89 99 89 q 261 130 217 89 q 306 261 306 171 l 306 1013 l 424 1013 l 424 251 q 351 51 424 113 q 154 -11 278 -11 "},"K":{"ha":951,"x_min":129,"x_max":919,"o":"m 129 0 l 129 1013 l 247 1013 l 247 456 l 765 1013 l 911 1013 l 514 592 l 919 0 l 778 0 l 433 506 l 247 313 l 247 0 l 129 0 "},"L":{"ha":760,"x_min":129,"x_max":747,"o":"m 129 0 l 129 1013 l 247 1013 l 247 108 l 747 108 l 747 0 l 129 0 "},"M":{"ha":1268,"x_min":129,"x_max":1138,"o":"m 129 0 l 129 1013 l 313 1013 l 631 182 l 636 182 l 956 1013 l 1138 1013 l 1138 0 l 1021 0 l 1021 510 l 1025 886 l 1015 886 l 683 0 l 586 0 l 253 886 l 243 886 l 246 510 l 246 0 l 129 0 "},"N":{"ha":1097,"x_min":129,"x_max":968,"o":"m 129 0 l 129 1013 l 279 1013 l 851 154 l 860 154 l 853 500 l 853 1013 l 968 1013 l 968 0 l 824 0 l 253 851 l 244 851 l 250 526 l 250 0 l 129 0 "},"Ñ":{"ha":1097,"x_min":129,"x_max":968,"o":"m 129 0 l 129 1013 l 279 1013 l 851 154 l 860 154 l 853 500 l 853 1013 l 968 1013 l 968 0 l 824 0 l 253 851 l 244 851 l 250 526 l 250 0 l 129 0 "},"O":{"ha":1106,"x_min":58,"x_max":1049,"o":"m 553 -12 q 292 51 404 -12 q 119 231 181 115 q 58 506 58 347 q 120 781 58 665 q 293 960 182 897 q 553 1024 404 1024 q 814 960 703 1024 q 987 781 925 897 q 1049 506 1049 665 q 987 231 1049 347 q 813 51 925 114 q 553 -12 701 -12 m 553 92 q 751 142 668 92 q 881 285 835 192 q 926 506 926 378 q 881 727 926 635 q 751 869 835 819 q 553 919 668 919 q 355 869 439 919 q 226 727 271 819 q 181 506 181 635 q 226 285 181 378 q 356 142 272 192 q 553 92 439 92 "},"Ó":{"ha":1106,"x_min":58,"x_max":1049,"o":"m 553 -12 q 292 51 404 -12 q 119 231 181 115 q 58 506 58 347 q 120 781 58 665 q 293 960 182 897 q 553 1024 404 1024 q 814 960 703 1024 q 987 781 925 897 q 1049 506 1049 665 q 987 231 1049 347 q 813 51 925 114 q 553 -12 701 -12 m 553 92 q 751 142 668 92 q 881 285 835 192 q 926 506 926 378 q 881 727 926 635 q 751 869 835 819 q 553 919 668 919 q 355 869 439 919 q 226 727 271 819 q 181 506 181 635 q 226 285 181 378 q 356 142 272 192 q 553 92 439 92 "},"Ô":{"ha":1106,"x_min":58,"x_max":1049,"o":"m 553 -12 q 292 51 404 -12 q 119 231 181 115 q 58 506 58 347 q 120 781 58 665 q 293 960 182 897 q 553 1024 404 1024 q 814 960 703 1024 q 987 781 925 897 q 1049 506 1049 665 q 987 231 1049 347 q 813 51 925 114 q 553 -12 701 -12 m 553 92 q 751 142 668 92 q 881 285 835 192 q 926 506 926 378 q 881 727 926 635 q 751 869 835 819 q 553 919 668 919 q 355 869 439 919 q 226 727 271 819 q 181 506 181 635 q 226 285 181 378 q 356 142 272 192 q 553 92 439 92 "},"Ö":{"ha":1106,"x_min":58,"x_max":1049,"o":"m 553 -12 q 292 51 404 -12 q 119 231 181 115 q 58 506 58 347 q 120 781 58 665 q 293 960 182 897 q 553 1024 404 1024 q 814 960 703 1024 q 987 781 925 897 q 1049 506 1049 665 q 987 231 1049 347 q 813 51 925 114 q 553 -12 701 -12 m 553 92 q 751 142 668 92 q 881 285 835 192 q 926 506 926 378 q 881 727 926 635 q 751 869 835 819 q 553 919 668 919 q 355 869 439 919 q 226 727 271 819 q 181 506 181 635 q 226 285 181 378 q 356 142 272 192 q 553 92 439 92 "},"Ò":{"ha":1106,"x_min":58,"x_max":1049,"o":"m 553 -12 q 292 51 404 -12 q 119 231 181 115 q 58 506 58 347 q 120 781 58 665 q 293 960 182 897 q 553 1024 404 1024 q 814 960 703 1024 q 987 781 925 897 q 1049 506 1049 665 q 987 231 1049 347 q 813 51 925 114 q 553 -12 701 -12 m 553 92 q 751 142 668 92 q 881 285 835 192 q 926 506 926 378 q 881 727 926 635 q 751 869 835 819 q 553 919 668 919 q 355 869 439 919 q 226 727 271 819 q 181 506 181 635 q 226 285 181 378 q 356 142 272 192 q 553 92 439 92 "},"Ø":{"ha":1106,"x_min":58,"x_max":1049,"o":"m 553 -12 q 292 51 404 -12 q 119 231 181 115 q 58 506 58 347 q 120 781 58 665 q 293 960 182 897 q 553 1024 404 1024 q 814 960 703 1024 q 987 781 925 897 q 1049 506 1049 665 q 987 231 1049 347 q 813 51 925 114 q 553 -12 701 -12 m 553 92 q 751 142 668 92 q 881 285 835 192 q 926 506 926 378 q 881 727 926 635 q 751 869 835 819 q 553 919 668 919 q 355 869 439 919 q 226 727 271 819 q 181 506 181 635 q 226 285 181 378 q 356 142 272 192 q 553 92 439 92 m 92 -56 l 921 1069 l 1015 1069 l 190 -56 l 92 -56 "},"Õ":{"ha":1106,"x_min":58,"x_max":1049,"o":"m 553 -12 q 292 51 404 -12 q 119 231 181 115 q 58 506 58 347 q 120 781 58 665 q 293 960 182 897 q 553 1024 404 1024 q 814 960 703 1024 q 987 781 925 897 q 1049 506 1049 665 q 987 231 1049 347 q 813 51 925 114 q 553 -12 701 -12 m 553 92 q 751 142 668 92 q 881 285 835 192 q 926 506 926 378 q 881 727 926 635 q 751 869 835 819 q 553 919 668 919 q 355 869 439 919 q 226 727 271 819 q 181 506 181 635 q 226 285 181 378 q 356 142 272 192 q 553 92 439 92 "},"Œ":{"ha":1571,"x_min":58,"x_max":1499,"o":"m 513 0 q 267 63 369 0 q 112 240 165 126 q 58 507 58 354 q 112 773 58 660 q 267 949 165 886 q 513 1013 369 1013 l 1499 1013 l 1499 908 l 921 908 l 921 567 l 1431 567 l 1431 469 l 921 469 l 921 106 l 1499 106 l 1499 0 l 513 0 m 526 104 l 803 104 l 803 908 l 526 908 q 273 806 367 908 q 179 504 179 703 q 275 205 179 306 q 526 104 371 104 "},"P":{"ha":914,"x_min":129,"x_max":875,"o":"m 129 0 l 129 1013 l 526 1013 q 781 930 686 1013 q 875 696 875 847 q 833 528 875 600 q 712 418 790 457 q 525 379 633 379 l 247 379 l 247 0 l 129 0 m 508 476 q 687 531 621 475 q 753 693 753 588 q 686 854 753 800 q 508 908 619 908 l 247 908 l 247 476 l 508 476 "},"Þ":{"ha":888,"x_min":129,"x_max":850,"o":"m 129 0 l 129 1013 l 247 1013 l 247 824 l 500 824 q 755 741 660 824 q 850 507 850 658 q 808 340 850 411 q 687 229 765 268 q 500 190 608 190 l 247 190 l 247 0 l 129 0 m 483 288 q 662 342 596 286 q 728 504 728 399 q 661 665 728 611 q 483 719 594 719 l 247 719 l 247 288 l 483 288 "},"Q":{"ha":1106,"x_min":58,"x_max":1049,"o":"m 911 -236 l 546 -12 q 290 53 400 -11 q 119 233 181 117 q 58 506 58 349 q 120 781 58 665 q 293 960 182 897 q 553 1024 404 1024 q 814 960 703 1024 q 987 781 925 897 q 1049 506 1049 665 q 1003 267 1049 371 q 872 95 957 163 q 671 6 788 28 l 931 -128 l 931 -236 l 911 -236 m 553 92 q 751 142 668 92 q 881 285 835 192 q 926 506 926 378 q 881 727 926 635 q 751 869 835 819 q 553 919 668 919 q 355 869 439 919 q 226 727 271 819 q 181 506 181 635 q 226 285 181 378 q 356 142 272 192 q 553 92 439 92 "},"R":{"ha":990,"x_min":129,"x_max":914,"o":"m 129 0 l 129 1013 l 588 1013 q 831 942 749 1013 q 914 739 914 871 q 868 581 914 646 q 733 493 822 517 l 733 483 q 856 419 819 469 q 892 282 892 368 l 892 107 q 894 55 892 82 q 907 0 896 28 l 788 0 q 775 49 778 21 q 772 111 772 76 l 772 261 q 756 354 772 317 q 699 410 740 392 q 579 429 657 429 l 247 429 l 247 0 l 129 0 m 247 526 l 572 526 q 741 582 690 526 q 792 724 792 638 q 731 867 792 822 q 572 911 671 911 l 247 911 l 247 526 "},"S":{"ha":910,"x_min":64,"x_max":844,"o":"m 458 -12 q 238 30 325 -12 q 109 146 151 72 q 64 315 67 219 l 188 315 q 256 146 190 208 q 460 83 321 83 q 649 127 578 83 q 721 261 721 171 q 694 367 721 328 q 605 428 667 406 q 439 468 543 451 q 246 520 324 489 q 128 605 168 551 q 89 744 89 658 q 185 948 89 872 q 450 1024 281 1024 q 716 943 622 1024 q 811 731 810 863 l 690 731 q 621 880 686 829 q 444 931 556 931 q 272 884 333 931 q 211 761 211 838 q 240 666 211 700 q 331 613 268 632 q 496 575 394 593 q 628 545 565 563 q 740 497 690 528 q 817 411 789 465 q 844 272 844 357 q 745 67 844 146 q 458 -12 646 -12 "},"ẞ":{"ha":931,"x_min":129,"x_max":869,"o":"m 129 0 l 129 1013 l 806 1013 l 806 889 l 568 586 l 568 576 q 793 499 717 575 q 869 296 869 422 q 780 78 869 157 q 532 0 690 0 l 342 0 l 342 99 l 517 99 q 691 158 636 99 q 746 306 746 217 q 690 457 746 403 q 510 511 633 511 l 439 511 l 439 576 l 699 910 l 249 910 l 249 0 l 129 0 "},"T":{"ha":803,"x_min":13,"x_max":789,"o":"m 340 0 l 340 908 l 13 908 l 13 1013 l 789 1013 l 789 908 l 460 908 l 460 0 l 340 0 "},"U":{"ha":1054,"x_min":121,"x_max":932,"o":"m 526 -12 q 229 90 338 -12 q 121 371 121 192 l 121 1013 l 239 1013 l 239 374 q 317 165 239 235 q 528 96 394 96 q 744 172 674 96 q 815 374 815 247 l 815 1013 l 932 1013 l 932 371 q 826 91 932 194 q 526 -12 719 -12 "},"Ú":{"ha":1054,"x_min":121,"x_max":932,"o":"m 526 -12 q 229 90 338 -12 q 121 371 121 192 l 121 1013 l 239 1013 l 239 374 q 317 165 239 235 q 528 96 394 96 q 744 172 674 96 q 815 374 815 247 l 815 1013 l 932 1013 l 932 371 q 826 91 932 194 q 526 -12 719 -12 "},"Û":{"ha":1054,"x_min":121,"x_max":932,"o":"m 526 -12 q 229 90 338 -12 q 121 371 121 192 l 121 1013 l 239 1013 l 239 374 q 317 165 239 235 q 528 96 394 96 q 744 172 674 96 q 815 374 815 247 l 815 1013 l 932 1013 l 932 371 q 826 91 932 194 q 526 -12 719 -12 "},"Ü":{"ha":1054,"x_min":121,"x_max":932,"o":"m 526 -12 q 229 90 338 -12 q 121 371 121 192 l 121 1013 l 239 1013 l 239 374 q 317 165 239 235 q 528 96 394 96 q 744 172 674 96 q 815 374 815 247 l 815 1013 l 932 1013 l 932 371 q 826 91 932 194 q 526 -12 719 -12 "},"Ù":{"ha":1054,"x_min":121,"x_max":932,"o":"m 526 -12 q 229 90 338 -12 q 121 371 121 192 l 121 1013 l 239 1013 l 239 374 q 317 165 239 235 q 528 96 394 96 q 744 172 674 96 q 815 374 815 247 l 815 1013 l 932 1013 l 932 371 q 826 91 932 194 q 526 -12 719 -12 "},"V":{"ha":932,"x_min":8,"x_max":924,"o":"m 385 0 l 8 1013 l 140 1013 l 408 268 l 461 111 l 471 111 l 524 267 l 794 1013 l 924 1013 l 547 0 l 385 0 "},"W":{"ha":1306,"x_min":14,"x_max":1292,"o":"m 243 0 l 14 1013 l 143 1013 l 269 426 l 331 131 l 339 131 l 576 1013 l 731 1013 l 969 129 l 979 129 l 1038 426 l 1163 1013 l 1292 1013 l 1063 0 l 897 0 l 657 865 l 649 865 l 408 0 l 243 0 "},"Ẃ":{"ha":1306,"x_min":14,"x_max":1292,"o":"m 243 0 l 14 1013 l 143 1013 l 269 426 l 331 131 l 339 131 l 576 1013 l 731 1013 l 969 129 l 979 129 l 1038 426 l 1163 1013 l 1292 1013 l 1063 0 l 897 0 l 657 865 l 649 865 l 408 0 l 243 0 "},"Ŵ":{"ha":1306,"x_min":14,"x_max":1292,"o":"m 243 0 l 14 1013 l 143 1013 l 269 426 l 331 131 l 339 131 l 576 1013 l 731 1013 l 969 129 l 979 129 l 1038 426 l 1163 1013 l 1292 1013 l 1063 0 l 897 0 l 657 865 l 649 865 l 408 0 l 243 0 "},"Ẅ":{"ha":1306,"x_min":14,"x_max":1292,"o":"m 243 0 l 14 1013 l 143 1013 l 269 426 l 331 131 l 339 131 l 576 1013 l 731 1013 l 969 129 l 979 129 l 1038 426 l 1163 1013 l 1292 1013 l 1063 0 l 897 0 l 657 865 l 649 865 l 408 0 l 243 0 "},"Ẁ":{"ha":1306,"x_min":14,"x_max":1292,"o":"m 243 0 l 14 1013 l 143 1013 l 269 426 l 331 131 l 339 131 l 576 1013 l 731 1013 l 969 129 l 979 129 l 1038 426 l 1163 1013 l 1292 1013 l 1063 0 l 897 0 l 657 865 l 649 865 l 408 0 l 243 0 "},"X":{"ha":910,"x_min":-3,"x_max":914,"o":"m -3 0 l 376 547 l 50 1013 l 188 1013 l 451 624 l 457 624 l 721 1013 l 858 1013 l 535 549 l 914 0 l 774 0 l 456 461 l 451 461 l 135 0 l -3 0 "},"Y":{"ha":882,"x_min":6,"x_max":875,"o":"m 381 0 l 381 404 l 6 1013 l 140 1013 l 436 519 l 443 519 l 742 1013 l 875 1013 l 499 404 l 499 0 l 381 0 "},"Ý":{"ha":882,"x_min":6,"x_max":875,"o":"m 381 0 l 381 404 l 6 1013 l 140 1013 l 436 519 l 443 519 l 742 1013 l 875 1013 l 499 404 l 499 0 l 381 0 m 396 1108 l 482 1303 l 597 1303 l 481 1108 l 396 1108 "},"Ŷ":{"ha":882,"x_min":6,"x_max":875,"o":"m 381 0 l 381 404 l 6 1013 l 140 1013 l 436 519 l 443 519 l 742 1013 l 875 1013 l 499 404 l 499 0 l 381 0 m 235 1108 l 389 1303 l 490 1303 l 646 1108 l 542 1108 l 440 1239 l 338 1108 l 235 1108 "},"Ÿ":{"ha":882,"x_min":6,"x_max":875,"o":"m 381 0 l 381 404 l 6 1013 l 140 1013 l 436 519 l 443 519 l 742 1013 l 875 1013 l 499 404 l 499 0 l 381 0 m 264 1136 l 264 1303 l 365 1303 l 365 1136 l 264 1136 m 514 1136 l 514 1303 l 615 1303 l 615 1136 l 514 1136 "},"Ỳ":{"ha":882,"x_min":6,"x_max":875,"o":"m 381 0 l 381 404 l 6 1013 l 140 1013 l 436 519 l 443 519 l 742 1013 l 875 1013 l 499 404 l 499 0 l 381 0 m 400 1108 l 283 1303 l 400 1303 l 485 1108 l 400 1108 "},"Z":{"ha":893,"x_min":58,"x_max":835,"o":"m 58 0 l 58 97 l 668 908 l 81 908 l 81 1013 l 819 1013 l 819 915 l 208 106 l 835 106 l 835 0 l 58 0 "},"a":{"ha":838,"x_min":54,"x_max":732,"o":"m 354 -12 q 137 86 219 -12 q 54 365 54 185 q 137 644 54 546 q 354 742 219 742 q 518 697 450 742 q 613 578 586 651 l 619 578 l 624 729 l 732 729 l 732 0 l 619 0 l 619 153 l 613 153 q 518 33 586 79 q 354 -12 450 -12 m 392 82 q 515 116 465 82 q 592 205 565 150 q 618 321 618 260 l 618 410 q 592 526 618 471 q 515 615 565 581 q 392 649 465 649 q 231 576 292 649 q 169 365 169 504 q 231 155 169 228 q 392 82 292 82 "},"á":{"ha":838,"x_min":54,"x_max":732,"o":"m 354 -12 q 137 86 219 -12 q 54 365 54 185 q 137 644 54 546 q 354 742 219 742 q 518 697 450 742 q 613 578 586 651 l 619 578 l 624 729 l 732 729 l 732 0 l 619 0 l 619 153 l 613 153 q 518 33 586 79 q 354 -12 450 -12 m 392 82 q 515 116 465 82 q 592 205 565 150 q 618 321 618 260 l 618 410 q 592 526 618 471 q 515 615 565 581 q 392 649 465 649 q 231 576 292 649 q 169 365 169 504 q 231 155 169 228 q 392 82 292 82 "},"â":{"ha":838,"x_min":54,"x_max":732,"o":"m 354 -12 q 137 86 219 -12 q 54 365 54 185 q 137 644 54 546 q 354 742 219 742 q 518 697 450 742 q 613 578 586 651 l 619 578 l 624 729 l 732 729 l 732 0 l 619 0 l 619 153 l 613 153 q 518 33 586 79 q 354 -12 450 -12 m 392 82 q 515 116 465 82 q 592 205 565 150 q 618 321 618 260 l 618 410 q 592 526 618 471 q 515 615 565 581 q 392 649 465 649 q 231 576 292 649 q 169 365 169 504 q 231 155 169 228 q 392 82 292 82 "},"ä":{"ha":838,"x_min":54,"x_max":732,"o":"m 354 -12 q 137 86 219 -12 q 54 365 54 185 q 137 644 54 546 q 354 742 219 742 q 518 697 450 742 q 613 578 586 651 l 619 578 l 624 729 l 732 729 l 732 0 l 619 0 l 619 153 l 613 153 q 518 33 586 79 q 354 -12 450 -12 m 392 82 q 515 116 465 82 q 592 205 565 150 q 618 321 618 260 l 618 410 q 592 526 618 471 q 515 615 565 581 q 392 649 465 649 q 231 576 292 649 q 169 365 169 504 q 231 155 169 228 q 392 82 292 82 "},"à":{"ha":838,"x_min":54,"x_max":732,"o":"m 354 -12 q 137 86 219 -12 q 54 365 54 185 q 137 644 54 546 q 354 742 219 742 q 518 697 450 742 q 613 578 586 651 l 619 578 l 624 729 l 732 729 l 732 0 l 619 0 l 619 153 l 613 153 q 518 33 586 79 q 354 -12 450 -12 m 392 82 q 515 116 465 82 q 592 205 565 150 q 618 321 618 260 l 618 410 q 592 526 618 471 q 515 615 565 581 q 392 649 465 649 q 231 576 292 649 q 169 365 169 504 q 231 155 169 228 q 392 82 292 82 "},"å":{"ha":838,"x_min":54,"x_max":732,"o":"m 354 -12 q 137 86 219 -12 q 54 365 54 185 q 137 644 54 546 q 354 742 219 742 q 518 697 450 742 q 613 578 586 651 l 619 578 l 624 729 l 732 729 l 732 0 l 619 0 l 619 153 l 613 153 q 518 33 586 79 q 354 -12 450 -12 m 392 82 q 515 116 465 82 q 592 205 565 150 q 618 321 618 260 l 618 410 q 592 526 618 471 q 515 615 565 581 q 392 649 465 649 q 231 576 292 649 q 169 365 169 504 q 231 155 169 228 q 392 82 292 82 "},"ã":{"ha":838,"x_min":54,"x_max":732,"o":"m 354 -12 q 137 86 219 -12 q 54 365 54 185 q 137 644 54 546 q 354 742 219 742 q 518 697 450 742 q 613 578 586 651 l 619 578 l 624 729 l 732 729 l 732 0 l 619 0 l 619 153 l 613 153 q 518 33 586 79 q 354 -12 450 -12 m 392 82 q 515 116 465 82 q 592 205 565 150 q 618 321 618 260 l 618 410 q 592 526 618 471 q 515 615 565 581 q 392 649 465 649 q 231 576 292 649 q 169 365 169 504 q 231 155 169 228 q 392 82 292 82 "},"æ":{"ha":1365,"x_min":54,"x_max":1318,"o":"m 354 -12 q 198 32 265 -12 q 92 161 131 76 q 54 365 54 246 q 138 644 54 546 q 354 742 221 742 q 518 697 450 742 q 613 578 586 651 l 619 578 l 624 729 l 715 729 l 715 582 l 722 582 q 827 698 756 656 q 988 740 899 740 q 1177 689 1103 740 q 1285 548 1251 638 q 1307 344 1318 458 l 750 344 q 816 149 753 218 q 985 81 879 81 q 1124 119 1068 81 q 1196 221 1181 157 l 1304 221 q 1251 99 1294 151 q 1140 17 1207 46 q 990 -12 1074 -12 q 825 29 897 -12 q 721 149 753 71 l 715 149 l 715 0 l 622 0 l 619 153 l 613 153 q 518 33 586 79 q 354 -12 450 -12 m 392 82 q 515 116 465 82 q 592 205 565 150 q 618 321 618 260 l 618 410 q 592 526 618 471 q 515 615 565 581 q 392 649 465 649 q 231 576 292 649 q 169 365 169 504 q 231 155 169 228 q 392 82 292 82 m 751 422 l 1197 422 q 1134 595 1196 542 q 979 649 1072 649 q 821 588 882 649 q 751 422 760 528 "},"b":{"ha":838,"x_min":106,"x_max":783,"o":"m 482 -12 q 320 33 388 -12 q 225 151 253 78 l 218 151 l 214 0 l 106 0 l 106 1013 l 218 1013 l 218 578 l 225 578 q 320 697 253 651 q 482 742 388 742 q 701 643 618 742 q 783 364 783 544 q 701 85 783 183 q 482 -12 618 -12 m 446 82 q 607 154 546 82 q 668 364 668 226 q 607 575 668 503 q 446 647 546 647 q 322 613 372 647 q 245 525 271 579 q 219 408 219 471 l 219 321 q 245 205 219 260 q 322 116 271 150 q 446 82 372 82 "},"c":{"ha":774,"x_min":54,"x_max":724,"o":"m 404 -12 q 220 35 299 -12 q 98 167 142 82 q 54 364 54 251 q 98 561 54 476 q 222 693 142 646 q 408 740 301 740 q 563 708 494 740 q 672 619 631 676 q 719 485 714 561 l 611 485 q 540 603 597 563 q 406 644 483 644 q 231 567 293 644 q 168 363 168 489 q 233 157 168 231 q 404 83 297 83 q 548 131 492 83 q 614 256 604 179 l 724 256 q 674 115 717 175 q 563 21 632 54 q 404 -12 493 -12 "},"ç":{"ha":774,"x_min":54,"x_max":724,"o":"m 404 -12 q 220 35 299 -12 q 98 167 142 82 q 54 364 54 251 q 98 561 54 476 q 222 693 142 646 q 408 740 301 740 q 563 708 494 740 q 672 619 631 676 q 719 485 714 561 l 611 485 q 540 603 597 563 q 406 644 483 644 q 231 567 293 644 q 168 363 168 489 q 233 157 168 231 q 404 83 297 83 q 548 131 492 83 q 614 256 604 179 l 724 256 q 674 115 717 175 q 563 21 632 54 q 404 -12 493 -12 "},"d":{"ha":838,"x_min":54,"x_max":732,"o":"m 354 -12 q 137 86 219 -12 q 54 365 54 185 q 137 644 54 546 q 354 742 219 742 q 518 697 450 742 q 613 578 586 651 l 619 578 l 619 1013 l 732 1013 l 731 0 l 624 0 l 619 153 l 613 153 q 518 33 586 79 q 354 -12 450 -12 m 392 82 q 515 116 465 82 q 592 205 565 150 q 618 321 618 260 l 618 410 q 592 526 618 471 q 515 615 565 581 q 392 649 465 649 q 231 576 292 649 q 169 365 169 504 q 231 155 169 228 q 392 82 292 82 "},"e":{"ha":781,"x_min":54,"x_max":733,"o":"m 401 -12 q 217 34 294 -12 q 97 165 139 81 q 54 363 54 250 q 96 561 54 476 q 214 693 138 646 q 396 740 290 740 q 590 688 514 740 q 700 547 667 636 q 722 344 733 457 l 165 344 q 232 149 168 218 q 401 81 296 81 q 540 119 483 81 q 611 221 597 157 l 719 221 q 665 99 710 151 q 553 17 621 46 q 401 -12 485 -12 m 394 649 q 240 591 300 649 q 168 432 179 533 l 613 432 q 547 598 610 547 q 394 649 485 649 "},"é":{"ha":781,"x_min":54,"x_max":733,"o":"m 401 -12 q 217 34 294 -12 q 97 165 139 81 q 54 363 54 250 q 96 561 54 476 q 214 693 138 646 q 396 740 290 740 q 590 688 514 740 q 700 547 667 636 q 722 344 733 458 l 165 344 q 232 148 168 218 q 401 78 296 78 q 541 117 485 78 q 611 221 597 157 l 719 221 q 665 99 710 151 q 553 17 621 46 q 401 -12 485 -12 m 394 651 q 236 590 297 651 q 168 422 175 529 l 613 422 q 551 594 611 538 q 394 651 492 651 "},"ê":{"ha":781,"x_min":54,"x_max":733,"o":"m 401 -12 q 217 34 294 -12 q 97 165 139 81 q 54 363 54 250 q 96 561 54 476 q 214 693 138 646 q 396 740 290 740 q 590 688 514 740 q 700 547 667 636 q 722 344 733 458 l 165 344 q 232 148 168 218 q 401 78 296 78 q 541 117 485 78 q 611 221 597 157 l 719 221 q 665 99 710 151 q 553 17 621 46 q 401 -12 485 -12 m 394 651 q 236 590 297 651 q 168 422 175 529 l 613 422 q 551 594 611 538 q 394 651 492 651 "},"ë":{"ha":781,"x_min":54,"x_max":733,"o":"m 401 -12 q 217 34 294 -12 q 97 165 139 81 q 54 363 54 250 q 96 561 54 476 q 214 693 138 646 q 396 740 290 740 q 590 688 514 740 q 700 547 667 636 q 722 344 733 458 l 165 344 q 232 148 168 218 q 401 78 296 78 q 541 117 485 78 q 611 221 597 157 l 719 221 q 665 99 710 151 q 553 17 621 46 q 401 -12 485 -12 m 394 651 q 236 590 297 651 q 168 422 175 529 l 613 422 q 551 594 611 538 q 394 651 492 651 "},"è":{"ha":781,"x_min":54,"x_max":733,"o":"m 401 -12 q 217 34 294 -12 q 97 165 139 81 q 54 363 54 250 q 96 561 54 476 q 214 693 138 646 q 396 740 290 740 q 590 688 514 740 q 700 547 667 636 q 722 344 733 458 l 165 344 q 232 148 168 218 q 401 78 296 78 q 541 117 485 78 q 611 221 597 157 l 719 221 q 665 99 710 151 q 553 17 621 46 q 401 -12 485 -12 m 394 651 q 236 590 297 651 q 168 422 175 529 l 613 422 q 551 594 611 538 q 394 651 492 651 "},"f":{"ha":476,"x_min":29,"x_max":464,"o":"m 168 0 l 168 636 l 29 636 l 29 729 l 168 729 l 168 853 q 215 972 168 932 q 342 1013 263 1013 l 464 1013 l 464 925 l 368 925 q 299 901 317 925 q 281 838 281 878 l 281 729 l 447 729 l 447 636 l 281 636 l 281 0 l 168 0 "},"g":{"ha":818,"x_min":54,"x_max":718,"o":"m 385 -246 q 183 -192 261 -246 q 93 -43 106 -137 l 203 -43 q 262 -128 213 -97 q 388 -160 311 -160 q 549 -113 490 -160 q 607 47 607 -67 l 607 199 l 599 199 q 508 85 574 128 q 350 42 442 42 q 135 135 215 42 q 54 392 54 228 q 136 649 54 557 q 353 742 218 742 q 508 699 443 742 q 599 586 574 656 l 607 586 l 610 729 l 718 729 l 718 57 q 676 -119 718 -53 q 560 -216 635 -186 q 385 -246 485 -246 m 386 131 q 506 163 457 131 q 581 244 554 194 q 607 347 607 294 l 607 436 q 581 538 607 489 q 507 619 556 588 q 388 651 458 651 q 228 582 288 651 q 169 392 169 513 q 229 199 169 267 q 386 131 289 131 "},"h":{"ha":840,"x_min":106,"x_max":742,"o":"m 106 0 l 106 1013 l 217 1013 l 217 578 l 225 578 q 328 699 258 658 q 479 740 397 740 q 615 710 556 740 q 708 610 674 679 q 742 429 742 542 l 742 0 l 629 0 l 629 407 q 583 588 629 531 q 443 646 538 646 q 324 613 375 646 q 244 523 272 579 q 217 394 217 467 l 217 0 l 106 0 "},"i":{"ha":324,"x_min":106,"x_max":218,"o":"m 106 850 l 106 1013 l 218 1013 l 218 850 l 106 850 m 106 0 l 106 729 l 218 729 l 218 0 l 106 0 "},"ı":{"ha":324,"x_min":106,"x_max":218,"o":"m 106 0 l 106 729 l 218 729 l 218 0 l 106 0 "},"í":{"ha":324,"x_min":106,"x_max":319,"o":"m 106 0 l 106 729 l 218 729 l 218 0 l 106 0 "},"î":{"ha":324,"x_min":-43,"x_max":368,"o":"m 106 0 l 106 729 l 218 729 l 218 0 l 106 0 "},"ï":{"ha":324,"x_min":-14,"x_max":338,"o":"m 106 0 l 106 729 l 218 729 l 218 0 l 106 0 "},"ì":{"ha":324,"x_min":6,"x_max":218,"o":"m 106 0 l 106 729 l 218 729 l 218 0 l 106 0 "},"j":{"ha":311,"x_min":-51,"x_max":206,"o":"m 93 850 l 93 1013 l 206 1013 l 206 850 l 93 850 m -51 -242 l -51 -151 l 10 -151 q 75 -129 57 -151 q 93 -62 93 -107 l 93 729 l 206 729 l 206 -74 q 166 -197 206 -153 q 38 -242 126 -242 l -51 -242 "},"k":{"ha":783,"x_min":106,"x_max":739,"o":"m 106 0 l 106 1013 l 219 1013 l 219 357 l 285 426 l 585 729 l 726 729 l 442 447 l 739 0 l 607 0 l 408 299 l 364 371 l 219 231 l 219 0 l 106 0 "},"l":{"ha":324,"x_min":106,"x_max":218,"o":"m 106 0 l 106 1013 l 218 1013 l 218 0 l 106 0 "},"m":{"ha":1343,"x_min":106,"x_max":1244,"o":"m 106 0 l 106 729 l 213 729 l 217 578 l 225 578 q 325 699 257 658 q 475 740 393 740 q 623 700 558 740 q 714 565 688 660 l 725 565 q 828 696 757 651 q 989 740 900 740 q 1120 710 1063 740 q 1211 610 1178 679 q 1244 429 1244 542 l 1244 0 l 1133 0 l 1133 407 q 1089 588 1133 531 q 950 646 1044 646 q 835 613 883 646 q 759 523 786 579 q 732 394 732 467 l 732 0 l 618 0 l 618 407 q 574 588 618 531 q 438 646 531 646 q 321 613 371 646 q 244 523 271 579 q 217 394 217 467 l 217 0 l 106 0 "},"n":{"ha":840,"x_min":106,"x_max":742,"o":"m 106 0 l 106 729 l 213 729 l 217 578 l 225 578 q 328 699 258 658 q 479 740 397 740 q 615 710 556 740 q 708 610 674 679 q 742 429 742 542 l 742 0 l 629 0 l 629 407 q 583 588 629 531 q 443 646 538 646 q 324 613 375 646 q 244 523 272 579 q 217 394 217 467 l 217 0 l 106 0 "},"ñ":{"ha":840,"x_min":106,"x_max":742,"o":"m 106 0 l 106 729 l 213 729 l 217 578 l 225 578 q 328 699 258 658 q 479 740 397 740 q 615 710 556 740 q 708 610 674 679 q 742 429 742 542 l 742 0 l 629 0 l 629 407 q 583 588 629 531 q 443 646 538 646 q 324 613 375 646 q 244 523 272 579 q 217 394 217 467 l 217 0 l 106 0 m 504 853 q 440 863 467 853 q 388 885 413 874 q 335 896 364 896 q 290 885 308 896 q 256 851 272 874 l 208 883 q 269 958 236 938 q 340 979 301 979 q 399 968 371 979 q 454 947 426 957 q 513 936 482 936 q 559 950 540 936 q 590 982 578 964 l 640 950 q 580 876 614 899 q 504 853 546 853 "},"o":{"ha":811,"x_min":54,"x_max":757,"o":"m 407 -12 q 222 34 301 -12 q 99 165 143 81 q 54 363 54 250 q 97 560 54 475 q 220 692 140 644 q 407 740 300 740 q 591 694 513 740 q 713 563 669 647 q 757 364 757 479 q 714 168 757 253 q 592 35 671 83 q 407 -12 514 -12 m 407 85 q 578 158 514 85 q 643 364 643 232 q 580 571 643 496 q 407 646 517 646 q 235 572 301 646 q 169 363 169 497 q 233 159 169 233 q 407 85 297 85 "},"ó":{"ha":811,"x_min":54,"x_max":757,"o":"m 407 -12 q 222 34 301 -12 q 99 165 143 81 q 54 363 54 250 q 97 560 54 475 q 220 692 140 644 q 407 740 300 740 q 591 694 513 740 q 713 563 669 647 q 757 364 757 479 q 714 168 757 253 q 592 35 671 83 q 407 -12 514 -12 m 407 85 q 578 158 514 85 q 643 364 643 232 q 580 571 643 496 q 407 646 517 646 q 235 572 301 646 q 169 363 169 497 q 233 159 169 233 q 407 85 297 85 "},"ô":{"ha":811,"x_min":54,"x_max":757,"o":"m 407 -12 q 222 34 301 -12 q 99 165 143 81 q 54 363 54 250 q 97 560 54 475 q 220 692 140 644 q 407 740 300 740 q 591 694 513 740 q 713 563 669 647 q 757 364 757 479 q 714 168 757 253 q 592 35 671 83 q 407 -12 514 -12 m 407 85 q 578 158 514 85 q 643 364 643 232 q 580 571 643 496 q 407 646 517 646 q 235 572 301 646 q 169 363 169 497 q 233 159 169 233 q 407 85 297 85 "},"ö":{"ha":811,"x_min":54,"x_max":757,"o":"m 407 -12 q 222 34 301 -12 q 99 165 143 81 q 54 363 54 250 q 97 560 54 475 q 220 692 140 644 q 407 740 300 740 q 591 694 513 740 q 713 563 669 647 q 757 364 757 479 q 714 168 757 253 q 592 35 671 83 q 407 -12 514 -12 m 407 85 q 578 158 514 85 q 643 364 643 232 q 580 571 643 496 q 407 646 517 646 q 235 572 301 646 q 169 363 169 497 q 233 159 169 233 q 407 85 297 85 "},"ò":{"ha":811,"x_min":54,"x_max":757,"o":"m 407 -12 q 222 34 301 -12 q 99 165 143 81 q 54 363 54 250 q 97 560 54 475 q 220 692 140 644 q 407 740 300 740 q 591 694 513 740 q 713 563 669 647 q 757 364 757 479 q 714 168 757 253 q 592 35 671 83 q 407 -12 514 -12 m 407 85 q 578 158 514 85 q 643 364 643 232 q 580 571 643 496 q 407 646 517 646 q 235 572 301 646 q 169 363 169 497 q 233 159 169 233 q 407 85 297 85 "},"ø":{"ha":811,"x_min":33,"x_max":776,"o":"m 407 -12 q 222 34 301 -12 q 99 165 143 81 q 54 363 54 250 q 97 560 54 475 q 220 692 140 644 q 407 740 300 740 q 591 694 513 740 q 713 563 669 647 q 757 364 757 479 q 714 168 757 253 q 592 35 671 83 q 407 -12 514 -12 m 407 85 q 578 158 514 85 q 643 364 643 232 q 580 571 643 496 q 407 646 517 646 q 235 572 301 646 q 169 363 169 497 q 233 159 169 233 q 407 85 297 85 m 33 -83 l 693 813 l 776 813 l 119 -83 l 33 -83 "},"õ":{"ha":811,"x_min":54,"x_max":757,"o":"m 407 -12 q 222 34 301 -12 q 99 165 143 81 q 54 363 54 250 q 97 560 54 475 q 220 692 140 644 q 407 740 300 740 q 591 694 513 740 q 713 563 669 647 q 757 364 757 479 q 714 168 757 253 q 592 35 671 83 q 407 -12 514 -12 m 407 85 q 578 158 514 85 q 643 364 643 232 q 580 571 643 496 q 407 646 517 646 q 235 572 301 646 q 169 363 169 497 q 233 159 169 233 q 407 85 297 85 "},"œ":{"ha":1371,"x_min":54,"x_max":1325,"o":"m 407 -12 q 222 34 301 -12 q 99 165 143 81 q 54 363 54 250 q 97 560 54 475 q 220 692 140 644 q 407 740 300 740 q 591 694 513 740 q 713 563 669 647 q 757 364 757 479 q 714 168 757 253 q 592 35 671 83 q 407 -12 514 -12 m 407 85 q 578 158 514 85 q 643 364 643 232 q 580 571 643 496 q 407 646 517 646 q 235 572 301 646 q 169 363 169 497 q 233 159 169 233 q 407 85 297 85 m 993 -12 q 808 34 886 -12 q 688 165 731 81 q 646 363 646 250 q 688 561 646 476 q 806 693 729 646 q 988 740 882 740 q 1182 688 1106 740 q 1292 547 1258 636 q 1314 344 1325 458 l 757 344 q 824 148 760 218 q 993 78 888 78 q 1133 117 1076 78 q 1203 221 1189 157 l 1311 221 q 1257 99 1301 151 q 1144 17 1213 46 q 993 -12 1076 -12 m 986 651 q 828 590 889 651 q 760 422 767 529 l 1204 422 q 1143 594 1203 538 q 986 651 1083 651 "},"p":{"ha":839,"x_min":106,"x_max":783,"o":"m 106 -232 l 107 729 l 214 729 l 218 578 l 226 578 q 322 697 254 651 q 483 742 389 742 q 701 643 618 742 q 783 364 783 544 q 701 85 783 183 q 483 -12 618 -12 q 322 33 389 -12 q 226 151 254 78 l 218 151 l 218 -232 l 106 -232 m 446 82 q 608 154 546 82 q 669 364 669 226 q 608 575 669 503 q 446 647 546 647 q 323 613 374 647 q 246 525 272 579 q 219 408 219 471 l 219 321 q 246 205 219 260 q 323 116 272 150 q 446 82 374 82 "},"þ":{"ha":838,"x_min":106,"x_max":783,"o":"m 106 -232 l 107 1013 l 218 1013 l 218 578 l 225 578 q 320 697 253 651 q 482 742 388 742 q 700 643 617 742 q 783 364 783 544 q 700 85 783 183 q 482 -12 617 -12 q 320 33 388 -12 q 225 151 253 78 l 217 151 l 217 -232 l 106 -232 m 446 82 q 607 154 546 82 q 668 364 668 226 q 607 575 668 503 q 446 647 546 647 q 322 613 372 647 q 245 525 271 579 q 219 408 219 471 l 219 321 q 245 205 219 260 q 322 116 271 150 q 446 82 372 82 "},"q":{"ha":838,"x_min":54,"x_max":732,"o":"m 619 -232 l 619 153 l 613 153 q 518 33 586 79 q 354 -12 450 -12 q 137 86 219 -12 q 54 365 54 185 q 137 644 54 546 q 354 742 219 742 q 518 697 450 742 q 613 578 586 651 l 619 578 l 624 729 l 732 729 l 732 -232 l 619 -232 m 392 82 q 515 116 465 82 q 592 205 565 150 q 618 321 618 260 l 618 410 q 592 526 618 471 q 515 615 565 581 q 392 649 465 649 q 231 576 292 649 q 169 365 169 504 q 231 155 169 228 q 392 82 292 82 "},"r":{"ha":506,"x_min":106,"x_max":479,"o":"m 106 0 l 106 729 l 206 729 l 213 594 l 218 594 q 301 701 242 664 q 435 739 361 739 q 458 738 447 739 q 479 736 469 738 l 479 629 q 458 631 469 631 q 435 632 447 632 q 281 581 339 632 q 217 435 224 529 l 217 0 l 106 0 "},"s":{"ha":733,"x_min":65,"x_max":665,"o":"m 368 -14 q 144 53 222 -14 q 65 228 65 119 l 178 228 q 232 108 178 146 q 371 69 286 69 q 504 101 458 69 q 550 192 550 133 q 506 284 550 258 q 361 324 461 310 q 216 357 278 336 q 120 419 154 378 q 86 531 86 460 q 164 686 86 629 q 368 743 242 743 q 574 683 500 743 q 650 515 649 622 l 540 515 q 492 626 539 592 q 367 660 444 660 q 242 627 286 660 q 199 542 199 594 q 246 456 199 482 q 392 417 293 431 q 530 387 468 407 q 628 324 592 367 q 665 201 665 282 q 585 40 665 94 q 368 -14 504 -14 "},"ß":{"ha":893,"x_min":14,"x_max":839,"o":"m 160 -232 l 160 636 l 14 636 l 14 729 l 160 729 q 208 897 165 831 q 321 994 251 963 q 475 1026 390 1026 q 692 956 614 1026 q 771 771 771 886 q 735 641 771 699 q 629 560 700 583 l 629 551 q 736 510 689 544 q 811 422 783 476 q 839 297 839 367 q 753 81 839 163 q 499 0 667 0 l 272 0 l 272 -232 l 160 -232 m 474 925 q 324 868 376 925 q 272 707 272 811 l 272 94 l 488 94 q 664 148 603 94 q 725 307 725 201 q 671 449 725 397 q 518 500 617 500 l 426 500 l 426 581 l 478 581 q 617 627 568 581 q 667 751 667 674 q 615 878 667 832 q 474 925 564 925 "},"t":{"ha":481,"x_min":14,"x_max":438,"o":"m 299 0 q 187 35 218 0 q 156 139 156 71 l 156 636 l 14 636 l 14 729 l 156 729 l 156 947 l 268 963 l 268 729 l 438 729 l 438 636 l 268 636 l 268 158 q 282 107 268 119 q 333 94 296 94 l 438 94 l 438 0 l 299 0 "},"u":{"ha":833,"x_min":99,"x_max":735,"o":"m 363 -12 q 169 61 240 -12 q 99 282 99 135 l 99 729 l 211 729 l 211 310 q 256 142 211 201 q 401 83 300 83 q 561 155 500 83 q 622 340 622 226 l 622 729 l 735 729 l 735 0 l 628 0 l 622 156 l 615 156 q 519 33 588 78 q 363 -12 450 -12 "},"ú":{"ha":833,"x_min":99,"x_max":735,"o":"m 363 -12 q 169 61 240 -12 q 99 282 99 135 l 99 729 l 211 729 l 211 310 q 256 142 211 201 q 401 83 300 83 q 561 155 500 83 q 622 340 622 226 l 622 729 l 735 729 l 735 0 l 628 0 l 622 156 l 615 156 q 519 33 588 78 q 363 -12 450 -12 "},"û":{"ha":833,"x_min":99,"x_max":735,"o":"m 363 -12 q 169 61 240 -12 q 99 282 99 135 l 99 729 l 211 729 l 211 310 q 256 142 211 201 q 401 83 300 83 q 561 155 500 83 q 622 340 622 226 l 622 729 l 735 729 l 735 0 l 628 0 l 622 156 l 615 156 q 519 33 588 78 q 363 -12 450 -12 "},"ü":{"ha":833,"x_min":99,"x_max":735,"o":"m 363 -12 q 169 61 240 -12 q 99 282 99 135 l 99 729 l 211 729 l 211 310 q 256 142 211 201 q 401 83 300 83 q 561 155 500 83 q 622 340 622 226 l 622 729 l 735 729 l 735 0 l 628 0 l 622 156 l 615 156 q 519 33 588 78 q 363 -12 450 -12 "},"ù":{"ha":833,"x_min":99,"x_max":735,"o":"m 363 -12 q 169 61 240 -12 q 99 282 99 135 l 99 729 l 211 729 l 211 310 q 256 142 211 201 q 401 83 300 83 q 561 155 500 83 q 622 340 622 226 l 622 729 l 735 729 l 735 0 l 628 0 l 622 156 l 615 156 q 519 33 588 78 q 363 -12 450 -12 "},"v":{"ha":658,"x_min":-6,"x_max":664,"o":"m 263 0 l -6 729 l 117 729 l 281 250 l 329 100 l 333 100 l 379 250 l 543 729 l 664 729 l 399 0 l 263 0 "},"w":{"ha":1006,"x_min":10,"x_max":996,"o":"m 201 0 l 10 729 l 124 729 l 283 113 l 289 113 l 442 729 l 568 729 l 725 113 l 729 113 l 886 729 l 996 729 l 804 0 l 657 0 l 503 586 l 497 586 l 349 0 l 201 0 "},"ẃ":{"ha":1006,"x_min":10,"x_max":996,"o":"m 201 0 l 10 729 l 124 729 l 283 113 l 289 113 l 442 729 l 568 729 l 725 113 l 729 113 l 886 729 l 996 729 l 804 0 l 657 0 l 503 586 l 497 586 l 349 0 l 201 0 "},"ŵ":{"ha":1006,"x_min":10,"x_max":996,"o":"m 201 0 l 10 729 l 124 729 l 283 113 l 289 113 l 442 729 l 568 729 l 725 113 l 729 113 l 886 729 l 996 729 l 804 0 l 657 0 l 503 586 l 497 586 l 349 0 l 201 0 "},"ẅ":{"ha":1006,"x_min":10,"x_max":996,"o":"m 201 0 l 10 729 l 124 729 l 283 113 l 289 113 l 442 729 l 568 729 l 725 113 l 729 113 l 886 729 l 996 729 l 804 0 l 657 0 l 503 586 l 497 586 l 349 0 l 201 0 "},"ẁ":{"ha":1006,"x_min":10,"x_max":996,"o":"m 201 0 l 10 729 l 124 729 l 283 113 l 289 113 l 442 729 l 568 729 l 725 113 l 729 113 l 886 729 l 996 729 l 804 0 l 657 0 l 503 586 l 497 586 l 349 0 l 201 0 "},"x":{"ha":715,"x_min":-3,"x_max":717,"o":"m -3 0 l 286 378 l 28 729 l 160 729 l 358 457 l 365 457 l 561 729 l 689 729 l 436 381 l 717 0 l 585 0 l 363 304 l 354 304 l 124 0 l -3 0 "},"y":{"ha":661,"x_min":-6,"x_max":665,"o":"m 44 -232 l 44 -139 l 119 -139 q 199 -117 171 -139 q 246 -50 228 -96 l 285 49 l -6 729 l 118 729 l 301 258 l 336 167 l 342 167 l 374 258 l 547 729 l 665 729 l 351 -78 q 269 -197 321 -162 q 136 -232 218 -232 l 44 -232 "},"ý":{"ha":661,"x_min":-6,"x_max":665,"o":"m 44 -232 l 44 -139 l 119 -139 q 199 -117 171 -139 q 246 -50 228 -96 l 285 49 l -6 729 l 118 729 l 301 258 l 336 167 l 342 167 l 374 258 l 547 729 l 665 729 l 351 -78 q 269 -197 321 -162 q 136 -232 218 -232 l 44 -232 "},"ŷ":{"ha":661,"x_min":-6,"x_max":665,"o":"m 44 -232 l 44 -139 l 119 -139 q 199 -117 171 -139 q 246 -50 228 -96 l 285 49 l -6 729 l 118 729 l 301 258 l 336 167 l 342 167 l 374 258 l 547 729 l 665 729 l 351 -78 q 269 -197 321 -162 q 136 -232 218 -232 l 44 -232 "},"ÿ":{"ha":661,"x_min":-6,"x_max":665,"o":"m 44 -232 l 44 -139 l 119 -139 q 199 -117 171 -139 q 246 -50 228 -96 l 285 49 l -6 729 l 118 729 l 301 258 l 336 167 l 342 167 l 374 258 l 547 729 l 665 729 l 351 -78 q 269 -197 321 -162 q 136 -232 218 -232 l 44 -232 "},"ỳ":{"ha":661,"x_min":-6,"x_max":665,"o":"m 44 -232 l 44 -139 l 119 -139 q 199 -117 171 -139 q 246 -50 228 -96 l 285 49 l -6 729 l 118 729 l 301 258 l 336 167 l 342 167 l 374 258 l 547 729 l 665 729 l 351 -78 q 269 -197 321 -162 q 136 -232 218 -232 l 44 -232 "},"z":{"ha":688,"x_min":36,"x_max":650,"o":"m 36 0 l 36 83 l 494 636 l 54 636 l 54 729 l 635 729 l 635 646 l 179 93 l 650 93 l 650 0 l 36 0 "},"ﬂ":{"ha":806,"x_min":18,"x_max":700,"o":"m 157 0 l 157 636 l 18 636 l 18 729 l 157 729 l 157 853 q 204 972 157 932 q 332 1013 251 1013 l 453 1013 l 453 931 l 358 931 q 288 906 307 931 q 269 842 269 882 l 269 729 l 588 729 l 588 1013 l 700 1013 l 700 0 l 588 0 l 588 636 l 269 636 l 269 0 l 157 0 "},"ª":{"ha":550,"x_min":35,"x_max":483,"o":"m 229 529 q 88 593 142 529 q 35 775 35 657 q 88 958 35 894 q 229 1022 142 1022 q 333 994 290 1022 q 394 918 376 965 l 399 918 l 403 1014 l 483 1014 l 483 538 l 399 538 l 399 633 l 394 633 q 332 558 376 586 q 229 529 288 529 m 258 600 q 362 647 326 600 q 397 749 397 693 l 397 804 q 362 906 397 861 q 258 951 326 951 q 159 907 197 951 q 121 775 121 863 q 159 645 121 690 q 258 600 197 600 "},"º":{"ha":531,"x_min":35,"x_max":496,"o":"m 267 529 q 99 596 163 529 q 35 775 35 663 q 97 953 35 885 q 267 1021 160 1021 q 433 955 369 1021 q 496 775 496 889 q 435 597 496 665 q 267 529 374 529 m 267 601 q 371 647 332 601 q 410 775 410 692 q 371 904 410 858 q 267 950 332 950 q 161 904 201 950 q 121 775 121 858 q 160 647 121 693 q 267 601 199 601 "},"μ":{"ha":832,"x_min":99,"x_max":733,"o":"m 99 -183 l 99 729 l 211 729 l 211 272 q 263 133 211 182 q 407 83 314 83 q 570 154 519 83 q 621 340 621 225 l 621 729 l 733 729 l 733 0 l 626 0 l 621 156 l 614 156 q 517 29 583 71 q 364 -12 451 -12 q 211 35 269 -12 l 211 -183 l 99 -183 "},"π":{"ha":797,"x_min":15,"x_max":772,"o":"m 694 -10 q 574 39 606 -10 q 543 163 543 88 l 543 636 l 249 636 l 249 0 l 138 0 l 138 636 l 15 636 l 15 729 l 772 729 l 772 636 l 653 636 l 653 186 q 668 108 653 135 q 724 81 683 81 q 771 90 756 81 l 771 4 q 694 -10 743 -10 "},"➀":{"ha":1208,"x_min":75,"x_max":1133,"o":"m 604 -14 q 328 51 447 -14 q 142 233 208 117 q 75 506 75 350 q 142 778 75 661 q 328 959 208 894 q 604 1024 447 1024 q 881 959 761 1024 q 1067 778 1000 894 q 1133 506 1133 661 q 1067 233 1133 350 q 881 51 1000 117 q 604 -14 761 -14 m 604 46 q 847 103 743 46 q 1010 265 951 161 q 1068 506 1068 368 q 1010 747 1068 643 q 847 908 951 850 q 604 965 743 965 q 362 908 467 965 q 199 747 257 850 q 140 506 140 643 q 199 265 140 368 q 362 103 257 161 q 604 46 467 46 m 607 231 l 607 633 l 476 633 l 476 690 l 497 690 q 578 716 553 690 q 608 782 604 742 l 679 782 l 679 231 l 607 231 "},"➁":{"ha":1208,"x_min":75,"x_max":1133,"o":"m 604 -14 q 328 51 447 -14 q 142 233 208 117 q 75 506 75 350 q 142 778 75 661 q 328 959 208 894 q 604 1024 447 1024 q 881 959 761 1024 q 1067 778 1000 894 q 1133 506 1133 661 q 1067 233 1133 350 q 881 51 1000 117 q 604 -14 761 -14 m 604 46 q 847 103 743 46 q 1010 265 951 161 q 1068 506 1068 368 q 1010 747 1068 643 q 847 908 951 850 q 604 965 743 965 q 362 908 467 965 q 199 747 257 850 q 140 506 140 643 q 199 265 140 368 q 362 103 257 161 q 604 46 467 46 m 428 226 l 428 239 q 456 347 428 303 q 524 424 483 392 q 606 485 565 457 q 674 546 646 514 q 701 621 701 578 q 674 692 701 665 q 603 719 647 719 q 527 688 556 719 q 500 607 499 657 l 431 607 q 478 736 428 688 q 608 785 528 785 q 731 740 685 785 q 778 624 778 696 q 754 537 778 574 q 696 470 731 500 q 624 413 661 440 q 558 356 586 386 q 519 288 529 325 q 568 291 539 290 q 628 292 597 292 l 783 292 l 783 226 l 428 226 "},"➂":{"ha":1208,"x_min":75,"x_max":1133,"o":"m 604 -14 q 328 51 447 -14 q 142 233 208 117 q 75 506 75 350 q 142 778 75 661 q 328 959 208 894 q 604 1024 447 1024 q 881 959 761 1024 q 1067 778 1000 894 q 1133 506 1133 661 q 1067 233 1133 350 q 881 51 1000 117 q 604 -14 761 -14 m 604 46 q 847 103 743 46 q 1010 265 951 161 q 1068 506 1068 368 q 1010 747 1068 643 q 847 908 951 850 q 604 965 743 965 q 362 908 467 965 q 199 747 257 850 q 140 506 140 643 q 199 265 140 368 q 362 103 257 161 q 604 46 467 46 m 604 224 q 471 273 519 224 q 422 399 422 322 l 494 399 q 524 319 493 350 q 603 288 556 288 q 683 316 651 288 q 714 390 714 344 q 686 460 714 435 q 614 485 658 485 l 556 485 l 556 543 l 608 543 q 681 569 657 543 q 706 635 706 596 q 677 700 706 676 q 604 724 649 724 q 528 694 557 724 q 499 614 500 664 l 428 614 q 477 742 426 694 q 608 789 528 789 q 731 750 682 789 q 781 644 781 711 q 756 562 781 594 q 696 518 732 529 l 696 514 q 765 467 742 503 q 789 385 789 432 q 737 268 789 313 q 604 224 685 224 "},"➃":{"ha":1208,"x_min":75,"x_max":1133,"o":"m 75 506 q 142 778 75 661 q 328 959 208 894 q 604 1024 447 1024 q 881 959 761 1024 q 1067 778 1000 894 q 1133 506 1133 661 q 1067 233 1133 350 q 881 51 1000 117 q 604 -14 761 -14 q 328 51 447 -14 q 142 233 208 117 q 75 506 75 350 m 140 506 q 199 265 140 368 q 362 103 257 161 q 604 46 467 46 q 847 103 743 46 q 1010 265 951 161 q 1068 506 1068 368 q 1010 747 1068 643 q 847 908 951 850 q 604 965 743 965 q 362 908 467 965 q 199 747 257 850 q 140 506 140 643 m 385 367 l 385 424 l 625 782 l 721 782 l 721 428 l 794 428 l 793 367 l 721 367 l 721 231 l 647 231 l 647 367 l 385 367 m 458 428 l 647 428 l 647 703 l 458 428 "},"➄":{"ha":1208,"x_min":75,"x_max":1133,"o":"m 604 -14 q 328 51 447 -14 q 142 233 208 117 q 75 506 75 350 q 142 778 75 661 q 328 959 208 894 q 604 1024 447 1024 q 881 959 761 1024 q 1067 778 1000 894 q 1133 506 1133 661 q 1067 233 1133 350 q 881 51 1000 117 q 604 -14 761 -14 m 604 46 q 847 103 743 46 q 1010 265 951 161 q 1068 506 1068 368 q 1010 747 1068 643 q 847 908 951 850 q 604 965 743 965 q 362 908 467 965 q 199 747 257 850 q 140 506 140 643 q 199 265 140 368 q 362 103 257 161 q 604 46 467 46 m 601 226 q 471 276 521 226 q 421 401 421 325 l 493 401 q 526 320 494 350 q 603 290 557 290 q 685 325 653 290 q 717 413 717 360 q 685 502 717 467 q 604 538 653 538 q 540 520 567 538 q 501 472 513 503 l 432 472 l 444 785 l 761 785 l 761 719 l 508 719 l 501 549 l 504 547 q 551 585 521 571 q 619 600 582 600 q 744 548 696 600 q 792 417 792 496 q 739 279 792 332 q 601 226 686 226 "},"➅":{"ha":1208,"x_min":75,"x_max":1133,"o":"m 604 -14 q 328 51 447 -14 q 142 233 208 117 q 75 506 75 350 q 142 778 75 661 q 328 959 208 894 q 604 1024 447 1024 q 881 959 761 1024 q 1067 778 1000 894 q 1133 506 1133 661 q 1067 233 1133 350 q 881 51 1000 117 q 604 -14 761 -14 m 604 46 q 847 103 743 46 q 1010 265 951 161 q 1068 506 1068 368 q 1010 747 1068 643 q 847 908 951 850 q 604 965 743 965 q 362 908 467 965 q 199 747 257 850 q 140 506 140 643 q 199 265 140 368 q 362 103 257 161 q 604 46 467 46 m 610 224 q 467 290 517 224 q 418 482 418 356 q 469 713 418 639 q 617 788 519 788 q 736 749 690 788 q 789 643 782 711 l 718 643 q 685 701 713 681 q 617 722 657 722 q 517 661 542 722 q 492 501 493 600 l 496 501 q 545 565 510 542 q 629 589 581 589 q 750 540 706 589 q 794 411 794 492 q 743 272 794 321 q 610 224 692 224 m 611 288 q 690 322 660 288 q 719 411 719 356 q 690 500 719 468 q 613 532 661 532 q 531 496 561 532 q 501 407 501 460 q 533 319 501 351 q 611 288 564 288 "},"➆":{"ha":1208,"x_min":75,"x_max":1133,"o":"m 604 -14 q 328 51 447 -14 q 142 233 208 117 q 75 506 75 350 q 142 778 75 661 q 328 959 208 894 q 604 1024 447 1024 q 881 959 761 1024 q 1067 778 1000 894 q 1133 506 1133 661 q 1067 233 1133 350 q 881 51 1000 117 q 604 -14 761 -14 m 604 46 q 847 103 743 46 q 1010 265 951 161 q 1068 506 1068 368 q 1010 747 1068 643 q 847 908 951 850 q 604 965 743 965 q 362 908 467 965 q 199 747 257 850 q 140 506 140 643 q 199 265 140 368 q 362 103 257 161 q 604 46 467 46 m 540 231 q 563 424 540 339 q 624 581 586 510 q 703 717 661 653 l 482 717 l 482 608 l 422 608 l 422 782 l 790 782 l 790 728 q 704 585 743 657 q 643 428 665 514 q 621 231 621 343 l 540 231 "},"➇":{"ha":1208,"x_min":75,"x_max":1133,"o":"m 604 -14 q 328 51 447 -14 q 142 233 208 117 q 75 506 75 350 q 142 778 75 661 q 328 959 208 894 q 604 1024 447 1024 q 881 959 761 1024 q 1067 778 1000 894 q 1133 506 1133 661 q 1067 233 1133 350 q 881 51 1000 117 q 604 -14 761 -14 m 604 46 q 847 103 743 46 q 1010 265 951 161 q 1068 506 1068 368 q 1010 747 1068 643 q 847 908 951 850 q 604 965 743 965 q 362 908 467 965 q 199 747 257 850 q 140 506 140 643 q 199 265 140 368 q 362 103 257 161 q 604 46 467 46 m 606 225 q 467 265 521 225 q 414 376 414 306 q 442 461 414 424 q 522 507 471 499 l 522 508 q 448 556 472 519 q 424 639 424 593 q 472 745 424 704 q 606 786 521 786 q 740 745 690 786 q 789 638 789 704 q 765 557 789 594 q 689 508 742 519 l 689 507 q 770 462 743 500 q 797 376 797 424 q 744 266 797 307 q 606 225 692 225 m 606 536 q 688 563 663 536 q 713 629 713 590 q 683 699 713 674 q 606 724 654 724 q 528 699 557 724 q 500 629 500 674 q 526 563 500 590 q 606 536 551 536 m 606 286 q 688 313 657 286 q 718 383 718 340 q 690 449 718 424 q 606 475 663 475 q 522 449 549 475 q 494 383 494 422 q 525 313 494 339 q 606 286 556 286 "},"➈":{"ha":1208,"x_min":75,"x_max":1133,"o":"m 604 -14 q 328 51 447 -14 q 142 233 208 117 q 75 506 75 350 q 142 778 75 661 q 328 959 208 894 q 604 1024 447 1024 q 881 959 761 1024 q 1067 778 1000 894 q 1133 506 1133 661 q 1067 233 1133 350 q 881 51 1000 117 q 604 -14 761 -14 m 604 46 q 847 103 743 46 q 1010 265 951 161 q 1068 506 1068 368 q 1010 747 1068 643 q 847 908 951 850 q 604 965 743 965 q 362 908 467 965 q 199 747 257 850 q 140 506 140 643 q 199 265 140 368 q 362 103 257 161 q 604 46 467 46 m 599 224 q 483 260 531 224 q 429 367 436 297 l 500 367 q 530 310 504 333 q 600 288 556 288 q 676 315 650 288 q 710 393 701 343 q 719 508 719 443 l 717 508 q 670 446 704 471 q 583 421 636 421 q 463 471 507 421 q 418 601 418 521 q 469 739 418 690 q 601 788 521 788 q 745 721 696 788 q 794 526 794 654 q 772 347 794 414 q 705 252 749 281 q 599 224 661 224 m 600 478 q 682 514 653 478 q 711 601 711 550 q 681 690 711 657 q 601 722 650 722 q 523 689 553 722 q 493 600 493 656 q 523 511 493 544 q 600 478 553 478 "},"❶":{"ha":1211,"x_min":75,"x_max":1135,"o":"m 604 -14 q 328 51 447 -14 q 142 233 208 117 q 75 506 75 350 q 142 778 75 661 q 329 959 210 894 q 604 1024 449 1024 q 882 959 763 1024 q 1068 778 1001 894 q 1135 506 1135 661 q 1068 234 1135 351 q 882 51 1001 117 q 604 -14 763 -14 m 607 231 l 681 231 l 681 782 l 610 782 q 579 716 606 742 q 499 690 553 690 l 478 690 l 478 633 l 607 633 l 607 231 "},"❷":{"ha":1211,"x_min":75,"x_max":1135,"o":"m 604 -14 q 328 51 447 -14 q 142 233 208 117 q 75 506 75 350 q 142 778 75 661 q 329 959 210 894 q 604 1024 449 1024 q 882 959 763 1024 q 1068 778 1001 894 q 1135 506 1135 661 q 1068 234 1135 351 q 882 51 1001 117 q 604 -14 763 -14 m 429 226 l 785 226 l 785 292 l 629 292 q 569 291 599 292 q 521 288 540 290 q 559 356 531 325 q 625 413 588 386 q 697 470 663 440 q 756 537 732 500 q 779 624 779 574 q 733 740 779 696 q 610 785 686 785 q 478 736 529 785 q 431 607 428 688 l 501 607 q 528 688 500 657 q 604 719 557 719 q 676 692 649 719 q 703 621 703 665 q 675 546 703 578 q 607 485 647 514 q 526 424 567 457 q 457 347 485 392 q 429 239 429 303 l 429 226 "},"❸":{"ha":1211,"x_min":75,"x_max":1135,"o":"m 604 -14 q 328 51 447 -14 q 142 233 208 117 q 75 506 75 350 q 142 778 75 661 q 329 959 210 894 q 604 1024 449 1024 q 882 959 763 1024 q 1068 778 1001 894 q 1135 506 1135 661 q 1068 234 1135 351 q 882 51 1001 117 q 604 -14 763 -14 m 604 224 q 738 268 686 224 q 790 385 790 313 q 767 467 790 432 q 697 514 743 503 l 697 518 q 758 562 733 529 q 782 644 782 594 q 732 750 782 711 q 608 789 682 789 q 478 742 528 789 q 428 614 428 694 l 500 614 q 529 694 500 664 q 606 724 558 724 q 677 700 649 724 q 706 635 706 676 q 681 569 706 596 q 610 543 657 543 l 556 543 l 556 485 l 615 485 q 688 460 660 485 q 715 390 715 435 q 684 316 715 344 q 604 288 653 288 q 526 319 557 288 q 496 399 494 350 l 424 399 q 471 273 422 322 q 604 224 519 224 "},"❹":{"ha":1211,"x_min":75,"x_max":1135,"o":"m 75 506 q 142 778 75 661 q 329 959 210 894 q 604 1024 449 1024 q 882 959 763 1024 q 1068 778 1001 894 q 1135 506 1135 661 q 1068 234 1135 351 q 882 51 1001 117 q 604 -14 763 -14 q 328 51 447 -14 q 142 233 208 117 q 75 506 75 350 m 393 367 l 654 367 l 656 231 l 728 231 l 728 367 l 801 367 l 801 428 l 728 428 l 728 782 l 633 782 l 393 424 l 393 367 m 467 428 l 656 703 l 656 428 l 467 428 "},"❺":{"ha":1211,"x_min":75,"x_max":1135,"o":"m 604 -14 q 328 51 447 -14 q 142 233 208 117 q 75 506 75 350 q 142 778 75 661 q 329 959 210 894 q 604 1024 449 1024 q 882 959 763 1024 q 1068 778 1001 894 q 1135 506 1135 661 q 1068 234 1135 351 q 882 51 1001 117 q 604 -14 763 -14 m 603 226 q 740 279 688 226 q 793 417 793 332 q 744 548 793 496 q 619 600 696 600 q 553 585 583 600 q 506 547 522 571 l 501 549 l 510 719 l 763 719 l 763 785 l 444 785 l 433 472 l 503 472 q 541 520 514 503 q 606 538 568 538 q 685 502 654 538 q 717 413 717 467 q 685 325 717 360 q 604 290 653 290 q 526 320 557 290 q 494 401 494 350 l 421 401 q 472 276 421 325 q 603 226 522 226 "},"❻":{"ha":1211,"x_min":75,"x_max":1135,"o":"m 604 -14 q 328 51 447 -14 q 142 233 208 117 q 75 506 75 350 q 142 778 75 661 q 329 959 210 894 q 604 1024 449 1024 q 882 959 763 1024 q 1068 778 1001 894 q 1135 506 1135 661 q 1068 234 1135 351 q 882 51 1001 117 q 604 -14 763 -14 m 611 224 q 744 272 693 224 q 796 411 796 321 q 751 540 796 492 q 631 589 707 589 q 547 565 582 589 q 496 501 511 542 l 493 501 q 519 661 494 600 q 618 722 543 722 q 686 701 658 722 q 719 643 714 681 l 790 643 q 738 749 783 711 q 618 788 692 788 q 470 713 521 788 q 419 482 419 639 q 611 224 419 224 m 613 288 q 533 319 564 288 q 503 407 503 351 q 533 496 503 460 q 614 532 563 532 q 691 500 661 532 q 721 411 721 468 q 691 322 721 356 q 613 288 661 288 "},"❼":{"ha":1211,"x_min":75,"x_max":1135,"o":"m 604 -14 q 328 51 447 -14 q 142 233 208 117 q 75 506 75 350 q 142 778 75 661 q 329 959 210 894 q 604 1024 449 1024 q 882 959 763 1024 q 1068 778 1001 894 q 1135 506 1135 661 q 1068 234 1135 351 q 882 51 1001 117 q 604 -14 763 -14 m 542 231 l 622 231 q 644 428 622 343 q 706 585 667 514 q 792 728 744 657 l 792 782 l 422 782 l 422 608 l 483 608 l 483 717 l 704 717 q 624 581 661 653 q 565 424 588 510 q 542 231 542 339 "},"❽":{"ha":1211,"x_min":75,"x_max":1135,"o":"m 75 506 q 142 778 75 661 q 329 959 210 894 q 604 1024 449 1024 q 882 959 763 1024 q 1068 778 1001 894 q 1135 506 1135 661 q 1068 234 1135 351 q 882 51 1001 117 q 604 -14 763 -14 q 328 51 447 -14 q 142 233 208 117 q 75 506 75 350 m 415 376 q 469 265 415 306 q 607 225 522 225 q 745 266 693 225 q 797 376 797 307 q 771 462 797 424 q 690 507 744 500 l 690 508 q 767 557 743 519 q 790 638 790 594 q 741 745 790 704 q 607 786 692 786 q 474 745 522 786 q 425 639 425 704 q 449 556 425 593 q 524 508 474 519 l 524 507 q 444 461 472 499 q 415 376 415 424 m 500 629 q 529 699 500 674 q 607 724 558 724 q 685 699 656 724 q 714 629 714 674 q 689 563 714 590 q 607 536 664 536 q 526 563 551 536 q 500 629 500 590 m 496 383 q 523 449 496 422 q 607 475 550 475 q 692 449 664 475 q 719 383 719 424 q 689 313 719 340 q 607 286 658 286 q 526 313 556 286 q 496 383 496 339 "},"❾":{"ha":1211,"x_min":75,"x_max":1135,"o":"m 604 -14 q 328 51 447 -14 q 142 233 208 117 q 75 506 75 350 q 142 778 75 661 q 329 959 210 894 q 604 1024 449 1024 q 882 959 763 1024 q 1068 778 1001 894 q 1135 506 1135 661 q 1068 234 1135 351 q 882 51 1001 117 q 604 -14 763 -14 m 600 224 q 706 252 663 224 q 773 347 750 281 q 796 526 796 414 q 747 721 796 654 q 603 788 697 788 q 471 739 522 788 q 419 601 419 690 q 463 471 419 521 q 583 421 507 421 q 671 446 636 421 q 718 508 706 471 l 721 508 q 712 393 721 443 q 677 315 703 343 q 601 288 651 288 q 531 310 557 288 q 501 367 506 333 l 431 367 q 485 260 438 297 q 600 224 532 224 m 601 478 q 524 511 554 478 q 494 600 494 544 q 524 689 494 656 q 603 722 554 722 q 681 690 651 722 q 711 601 711 657 q 683 514 711 550 q 601 478 654 478 "},"₀":{"ha":493,"x_min":31,"x_max":464,"o":"m 247 -49 q 89 32 147 -49 q 31 260 31 113 q 91 487 31 408 q 249 565 151 565 q 406 485 347 565 q 464 258 464 406 q 404 30 464 108 q 247 -49 344 -49 m 249 22 q 346 78 310 22 q 382 260 382 135 q 346 440 382 383 q 249 496 310 496 q 149 440 185 496 q 114 260 114 383 q 149 79 114 136 q 249 22 185 22 "},"₁":{"ha":339,"x_min":26,"x_max":253,"o":"m 171 -42 l 171 396 l 26 396 l 26 458 l 50 458 q 140 486 110 458 q 174 560 169 514 l 253 560 l 253 -42 l 171 -42 "},"₂":{"ha":476,"x_min":36,"x_max":438,"o":"m 36 -42 l 36 -26 q 67 92 36 43 q 144 176 99 140 q 236 242 190 211 q 313 308 282 274 q 344 389 344 343 q 314 466 344 438 q 232 494 283 494 q 149 463 181 494 q 118 374 117 432 l 38 374 q 92 514 36 461 q 239 567 147 567 q 378 519 325 567 q 431 393 431 471 q 403 297 431 338 q 336 225 376 257 q 253 164 296 193 q 179 103 211 135 q 139 32 147 72 l 438 32 l 438 -42 l 36 -42 "},"₃":{"ha":490,"x_min":33,"x_max":446,"o":"m 238 -49 q 88 5 142 -49 q 33 143 33 58 l 115 143 q 147 58 114 92 q 238 24 179 24 q 328 53 294 24 q 361 132 361 83 q 330 210 361 185 q 249 235 299 235 l 183 235 l 183 299 l 244 299 q 324 328 297 299 q 351 399 351 357 q 320 471 351 446 q 239 496 289 496 q 151 463 183 496 q 119 376 119 429 l 39 376 q 94 515 38 463 q 243 567 150 567 q 385 524 332 567 q 438 408 438 481 q 410 321 438 357 q 343 272 383 285 l 343 267 q 418 220 390 257 q 446 126 446 183 q 388 -1 446 47 q 238 -49 331 -49 "},"₄":{"ha":529,"x_min":36,"x_max":497,"o":"m 332 -42 l 332 107 l 36 107 l 36 171 l 307 560 l 415 560 l 415 176 l 497 176 l 497 107 l 415 107 l 415 -42 l 332 -42 m 122 176 l 332 176 l 332 476 l 122 176 "},"₅":{"ha":504,"x_min":43,"x_max":461,"o":"m 249 -49 q 100 4 156 -49 q 43 142 44 57 l 126 142 q 160 55 126 86 q 249 24 194 24 q 343 60 310 24 q 376 154 376 97 q 342 253 376 217 q 250 289 307 289 q 177 269 207 289 q 133 219 147 250 l 56 219 l 69 560 l 431 560 l 431 486 l 143 486 l 135 304 l 139 303 q 193 344 158 328 q 268 360 228 360 q 409 303 357 360 q 461 158 461 246 q 404 8 461 65 q 249 -49 347 -49 "},"₆":{"ha":500,"x_min":40,"x_max":464,"o":"m 256 -49 q 40 235 40 -49 q 97 486 40 406 q 264 567 154 567 q 400 524 350 567 q 457 410 450 482 l 378 410 q 341 472 372 450 q 264 494 310 494 q 153 431 183 494 q 124 257 124 368 l 128 257 q 182 326 142 300 q 278 351 222 351 q 412 298 360 351 q 464 154 464 244 q 406 6 464 60 q 256 -49 349 -49 m 258 24 q 347 60 314 24 q 381 157 381 97 q 347 253 381 218 q 258 288 314 288 q 167 249 201 288 q 133 153 133 211 q 168 58 133 93 q 258 24 203 24 "},"₇":{"ha":496,"x_min":36,"x_max":451,"o":"m 171 -42 q 197 172 171 78 q 265 342 224 265 q 353 486 307 419 l 103 486 l 103 368 l 36 368 l 36 560 l 451 560 l 451 500 q 356 348 400 425 q 286 177 313 271 q 260 -42 260 83 l 171 -42 "},"₈":{"ha":506,"x_min":38,"x_max":468,"o":"m 253 -47 q 97 -3 157 -47 q 38 117 38 42 q 71 212 38 171 q 160 261 104 253 l 160 264 q 74 315 101 275 q 47 403 47 356 q 103 521 47 476 q 253 565 158 565 q 404 521 349 565 q 460 403 460 476 q 433 316 460 357 q 346 264 407 275 l 346 261 q 437 213 406 253 q 468 118 468 174 q 409 -3 468 42 q 253 -47 350 -47 m 253 296 q 346 324 318 296 q 374 396 374 353 q 340 470 374 443 q 253 497 307 497 q 165 470 197 497 q 133 396 133 443 q 163 324 133 353 q 253 296 192 296 m 253 25 q 346 53 311 25 q 381 128 381 81 q 349 200 381 172 q 253 228 318 228 q 157 199 188 228 q 126 128 126 169 q 162 52 126 79 q 253 25 197 25 "},"₉":{"ha":500,"x_min":36,"x_max":460,"o":"m 242 -49 q 106 -6 157 -49 q 49 108 56 38 l 129 108 q 164 48 135 72 q 242 24 193 24 q 350 88 324 24 q 376 261 376 153 l 372 261 q 319 194 358 219 q 221 168 279 168 q 88 222 139 168 q 36 364 36 275 q 94 513 36 458 q 244 567 151 567 q 406 494 351 567 q 460 282 460 422 q 403 26 460 101 q 242 -49 347 -49 m 240 231 q 333 269 300 231 q 365 365 365 308 q 332 460 365 425 q 242 494 299 494 q 153 458 186 494 q 119 361 119 422 q 153 266 119 301 q 240 231 186 231 "},"⁰":{"ha":493,"x_min":31,"x_max":464,"o":"m 247 446 q 89 526 147 446 q 31 754 31 607 q 91 981 31 903 q 249 1060 151 1060 q 406 980 347 1060 q 464 753 464 900 q 404 524 464 603 q 247 446 344 446 m 249 517 q 346 573 310 517 q 382 754 382 629 q 346 934 382 878 q 249 990 310 990 q 149 934 185 990 q 114 754 114 878 q 149 574 114 631 q 249 517 185 517 "},"¹":{"ha":339,"x_min":26,"x_max":253,"o":"m 171 453 l 171 890 l 26 890 l 26 953 l 50 953 q 140 981 110 953 q 174 1054 169 1008 l 253 1054 l 253 453 l 171 453 "},"²":{"ha":476,"x_min":36,"x_max":438,"o":"m 36 453 l 36 468 q 67 586 36 538 q 144 670 99 635 q 236 737 190 706 q 313 803 282 768 q 344 883 344 838 q 314 960 344 932 q 232 989 283 989 q 149 958 181 989 q 118 868 117 926 l 38 868 q 92 1008 36 956 q 239 1061 147 1061 q 378 1013 325 1061 q 431 888 431 965 q 403 792 431 832 q 336 719 376 751 q 253 658 296 688 q 179 598 211 629 q 139 526 147 567 l 438 526 l 438 453 l 36 453 "},"³":{"ha":490,"x_min":33,"x_max":446,"o":"m 238 446 q 88 499 142 446 q 33 638 33 553 l 115 638 q 147 552 114 586 q 238 518 179 518 q 328 548 294 518 q 361 626 361 578 q 330 704 361 679 q 249 729 299 729 l 183 729 l 183 793 l 244 793 q 324 822 297 793 q 351 893 351 851 q 320 965 351 940 q 239 990 289 990 q 151 957 183 990 q 119 871 119 924 l 39 871 q 94 1009 38 957 q 243 1061 150 1061 q 385 1018 332 1061 q 438 903 438 975 q 410 815 438 851 q 343 767 383 779 l 343 761 q 418 715 390 751 q 446 621 446 678 q 388 494 446 542 q 238 446 331 446 "},"⁴":{"ha":529,"x_min":36,"x_max":497,"o":"m 332 453 l 332 601 l 36 601 l 36 665 l 307 1054 l 415 1054 l 415 671 l 497 671 l 497 601 l 415 601 l 415 453 l 332 453 m 122 671 l 332 671 l 332 971 l 122 671 "},"⁵":{"ha":504,"x_min":43,"x_max":461,"o":"m 249 446 q 100 499 156 446 q 43 636 44 551 l 126 636 q 160 549 126 581 q 249 518 194 518 q 343 555 310 518 q 376 649 376 592 q 342 747 376 711 q 250 783 307 783 q 177 764 207 783 q 133 714 147 744 l 56 714 l 69 1054 l 431 1054 l 431 981 l 143 981 l 135 799 l 139 797 q 193 838 158 822 q 268 854 228 854 q 409 797 357 854 q 461 653 461 740 q 404 503 461 560 q 249 446 347 446 "},"⁶":{"ha":500,"x_min":40,"x_max":464,"o":"m 256 446 q 40 729 40 446 q 97 981 40 900 q 264 1061 154 1061 q 400 1019 350 1061 q 457 904 450 976 l 378 904 q 341 967 372 944 q 264 989 310 989 q 153 926 183 989 q 124 751 124 863 l 128 751 q 182 820 142 794 q 278 846 222 846 q 412 792 360 846 q 464 649 464 739 q 406 500 464 554 q 256 446 349 446 m 258 518 q 347 555 314 518 q 381 651 381 592 q 347 747 381 713 q 258 782 314 782 q 167 744 201 782 q 133 647 133 706 q 168 553 133 588 q 258 518 203 518 "},"⁷":{"ha":496,"x_min":36,"x_max":451,"o":"m 171 453 q 197 666 171 572 q 265 837 224 760 q 353 981 307 914 l 103 981 l 103 863 l 36 863 l 36 1054 l 451 1054 l 451 994 q 356 842 400 919 q 286 672 313 765 q 260 453 260 578 l 171 453 "},"⁸":{"ha":506,"x_min":38,"x_max":468,"o":"m 253 447 q 97 492 157 447 q 38 611 38 536 q 71 706 38 665 q 160 756 104 747 l 160 758 q 74 810 101 769 q 47 897 47 850 q 103 1015 47 971 q 253 1060 158 1060 q 404 1015 349 1060 q 460 897 460 971 q 433 810 460 851 q 346 758 407 769 l 346 756 q 437 708 406 747 q 468 613 468 668 q 409 492 468 536 q 253 447 350 447 m 253 790 q 346 819 318 790 q 374 890 374 847 q 340 965 374 938 q 253 992 307 992 q 165 965 197 992 q 133 890 133 938 q 163 819 133 847 q 253 790 192 790 m 253 519 q 346 547 311 519 q 381 622 381 575 q 349 694 381 667 q 253 722 318 722 q 157 693 188 722 q 126 622 126 664 q 162 547 126 574 q 253 519 197 519 "},"⁹":{"ha":500,"x_min":36,"x_max":460,"o":"m 242 446 q 106 489 157 446 q 49 603 56 532 l 129 603 q 164 542 135 567 q 242 518 193 518 q 350 583 324 518 q 376 756 376 647 l 372 756 q 319 688 358 714 q 221 663 279 663 q 88 716 139 663 q 36 858 36 769 q 94 1007 36 953 q 244 1061 151 1061 q 406 989 351 1061 q 460 776 460 917 q 403 521 460 596 q 242 446 347 446 m 240 725 q 333 764 300 725 q 365 860 365 803 q 332 954 365 919 q 242 989 299 989 q 153 953 186 989 q 119 856 119 917 q 153 760 119 796 q 240 725 186 725 "},"⁄":{"ha":175,"x_min":-303,"x_max":478,"o":"m -303 0 l 386 1001 l 478 1001 l -212 0 l -303 0 "},"½":{"ha":929,"x_min":0,"x_max":888,"o":"m 144 458 l 144 853 l 13 853 l 13 911 l 33 911 q 117 936 90 911 q 147 1001 143 961 l 219 1001 l 219 458 l 144 458 m 0 0 l 689 1001 l 781 1001 l 90 0 l 0 0 m 522 0 l 522 13 q 551 120 522 76 q 622 196 579 164 q 706 256 664 228 q 776 316 747 285 q 804 389 804 347 q 776 458 804 432 q 701 483 749 483 q 622 453 650 483 q 597 375 594 424 l 524 375 q 574 502 522 454 q 707 550 625 550 q 833 506 785 550 q 882 393 882 463 q 858 308 882 344 q 797 242 833 271 q 723 185 761 213 q 655 129 685 158 q 615 63 625 100 q 673 66 640 65 q 728 67 706 67 l 888 67 l 888 0 l 522 0 "},"¼":{"ha":842,"x_min":0,"x_max":826,"o":"m 144 458 l 144 853 l 13 853 l 13 911 l 33 911 q 117 936 90 911 q 147 1001 143 961 l 219 1001 l 219 458 l 144 458 m 0 0 l 689 1001 l 781 1001 l 90 0 l 0 0 m 676 0 l 676 133 l 407 133 l 407 192 l 653 543 l 753 543 l 753 196 l 826 196 l 826 133 l 753 133 l 753 0 l 676 0 m 483 196 l 676 196 l 676 472 l 483 196 "},"¾":{"ha":994,"x_min":35,"x_max":981,"o":"m 221 451 q 85 501 135 451 q 36 625 35 550 l 108 625 q 140 547 108 578 q 221 517 172 517 q 303 544 272 517 q 335 615 335 572 q 307 684 335 660 q 232 708 279 708 l 172 708 l 172 767 l 228 767 q 301 792 276 767 q 325 856 325 818 q 297 919 325 896 q 224 943 268 943 q 145 914 176 943 q 114 836 114 885 l 40 836 q 94 963 40 918 q 225 1008 147 1008 q 353 969 303 1008 q 403 865 403 931 q 380 788 403 821 q 317 742 357 756 l 317 739 q 389 692 365 726 q 413 610 413 657 q 359 496 413 540 q 221 451 306 451 m 153 0 l 842 1001 l 933 1001 l 243 0 l 153 0 m 831 0 l 831 133 l 561 133 l 561 192 l 807 543 l 907 543 l 907 196 l 981 196 l 981 133 l 907 133 l 907 0 l 831 0 m 638 196 l 831 196 l 831 472 l 638 196 "},"⅛":{"ha":949,"x_min":0,"x_max":911,"o":"m 144 458 l 144 853 l 13 853 l 13 911 l 33 911 q 117 936 90 911 q 147 1001 143 961 l 219 1001 l 219 458 l 144 458 m 0 0 l 689 1001 l 781 1001 l 90 0 l 0 0 m 714 -6 q 571 35 625 -6 q 517 143 517 75 q 546 228 517 190 q 629 272 575 265 l 629 275 q 554 319 581 285 q 528 401 528 354 q 578 508 528 468 q 714 549 628 549 q 851 508 800 549 q 901 400 901 467 q 876 321 901 357 q 799 275 851 285 l 799 272 q 881 231 851 267 q 911 144 911 194 q 857 35 911 76 q 714 -6 803 -6 m 714 304 q 799 330 772 304 q 825 394 825 356 q 794 462 825 438 q 714 486 764 486 q 633 461 663 486 q 604 394 604 436 q 631 330 604 356 q 714 304 658 304 m 714 61 q 799 86 767 61 q 831 154 831 111 q 802 218 831 193 q 714 243 774 243 q 626 217 654 243 q 599 154 599 190 q 631 85 599 110 q 714 61 663 61 "},"⅜":{"ha":1103,"x_min":35,"x_max":1065,"o":"m 221 451 q 85 501 135 451 q 36 625 35 550 l 108 625 q 140 547 108 578 q 221 517 172 517 q 303 544 272 517 q 335 615 335 572 q 307 684 335 660 q 232 708 279 708 l 172 708 l 172 767 l 228 767 q 301 792 276 767 q 325 856 325 818 q 297 919 325 896 q 224 943 268 943 q 145 914 176 943 q 114 836 114 885 l 40 836 q 94 963 40 918 q 225 1008 147 1008 q 353 969 303 1008 q 403 865 403 931 q 380 788 403 821 q 317 742 357 756 l 317 739 q 389 692 365 726 q 413 610 413 657 q 359 496 413 540 q 221 451 306 451 m 153 0 l 842 1001 l 933 1001 l 243 0 l 153 0 m 868 -6 q 725 35 779 -6 q 671 143 671 75 q 700 228 671 190 q 783 272 729 265 l 783 275 q 708 319 735 285 q 682 401 682 354 q 732 508 682 468 q 868 549 782 549 q 1005 508 954 549 q 1056 400 1056 467 q 1031 321 1056 357 q 953 275 1006 285 l 953 272 q 1035 231 1006 267 q 1065 144 1065 194 q 1011 35 1065 76 q 868 -6 957 -6 m 868 304 q 953 330 926 304 q 979 394 979 356 q 949 462 979 438 q 868 486 918 486 q 788 461 817 486 q 758 394 758 436 q 785 330 758 356 q 868 304 813 304 m 868 61 q 953 86 921 61 q 985 154 985 111 q 956 218 985 193 q 868 243 928 243 q 781 217 808 243 q 753 154 753 190 q 785 85 753 110 q 868 61 817 61 "},"⅝":{"ha":1115,"x_min":44,"x_max":1078,"o":"m 232 451 q 97 501 147 451 q 44 624 46 550 l 121 624 q 151 548 119 576 q 233 519 183 519 q 317 552 285 519 q 349 636 349 585 q 317 723 349 689 q 233 757 286 757 q 167 740 194 757 q 128 694 139 722 l 57 694 l 69 1001 l 394 1001 l 394 935 l 136 935 l 128 771 l 132 769 q 181 807 149 793 q 250 821 213 821 q 377 769 328 821 q 426 639 426 718 q 372 503 426 556 q 232 451 318 451 m 167 0 l 856 1001 l 947 1001 l 257 0 l 167 0 m 881 -6 q 738 35 792 -6 q 683 143 683 75 q 713 228 683 190 q 796 272 742 265 l 796 275 q 721 319 747 285 q 694 401 694 354 q 744 508 694 468 q 881 549 794 549 q 1017 508 967 549 q 1068 400 1068 467 q 1043 321 1068 357 q 965 275 1018 285 l 965 272 q 1048 231 1018 267 q 1078 144 1078 194 q 1024 35 1078 76 q 881 -6 969 -6 m 881 304 q 965 330 939 304 q 992 394 992 356 q 961 462 992 438 q 881 486 931 486 q 800 461 829 486 q 771 394 771 436 q 798 330 771 356 q 881 304 825 304 m 881 61 q 965 86 933 61 q 997 154 997 111 q 969 218 997 193 q 881 243 940 243 q 793 217 821 243 q 765 154 765 190 q 797 85 765 110 q 881 61 829 61 "},"⅞":{"ha":982,"x_min":13,"x_max":943,"o":"m 135 458 q 159 652 135 568 q 222 805 183 736 q 301 935 260 874 l 74 935 l 74 829 l 13 829 l 13 1001 l 390 1001 l 390 947 q 303 810 343 879 q 240 657 264 742 q 215 458 215 572 l 135 458 m 32 0 l 721 1001 l 813 1001 l 122 0 l 32 0 m 746 -6 q 603 35 657 -6 q 549 143 549 75 q 578 228 549 190 q 661 272 607 265 l 661 275 q 586 319 613 285 q 560 401 560 354 q 610 508 560 468 q 746 549 660 549 q 883 508 832 549 q 933 400 933 467 q 908 321 933 357 q 831 275 883 285 l 831 272 q 913 231 883 267 q 943 144 943 194 q 889 35 943 76 q 746 -6 835 -6 m 746 304 q 831 330 804 304 q 857 394 857 356 q 826 462 857 438 q 746 486 796 486 q 665 461 694 486 q 636 394 636 436 q 663 330 636 356 q 746 304 690 304 m 746 61 q 831 86 799 61 q 863 154 863 111 q 834 218 863 193 q 746 243 806 243 q 658 217 686 243 q 631 154 631 190 q 663 85 631 110 q 746 61 694 61 "},".":{"ha":276,"x_min":81,"x_max":196,"o":"m 81 0 l 81 125 l 196 125 l 196 0 l 81 0 "},",":{"ha":269,"x_min":51,"x_max":189,"o":"m 51 -215 l 51 -151 l 69 -151 q 114 -127 101 -149 q 126 -72 126 -106 l 126 0 l 74 0 l 74 125 l 189 125 l 189 -79 q 161 -181 189 -150 q 81 -214 133 -211 l 51 -215 "},":":{"ha":276,"x_min":81,"x_max":196,"o":"m 81 603 l 81 729 l 196 729 l 196 603 l 81 603 m 81 0 l 81 125 l 196 125 l 196 0 l 81 0 "},";":{"ha":269,"x_min":51,"x_max":189,"o":"m 74 603 l 74 729 l 189 729 l 189 603 l 74 603 m 51 -215 l 51 -151 l 69 -151 q 114 -127 101 -149 q 126 -72 126 -106 l 126 0 l 74 0 l 74 125 l 189 125 l 189 -79 q 161 -181 189 -150 q 81 -214 133 -211 l 51 -215 "},"…":{"ha":829,"x_min":81,"x_max":749,"o":"m 81 0 l 81 125 l 196 125 l 196 0 l 81 0 m 357 0 l 357 125 l 472 125 l 472 0 l 357 0 m 633 0 l 633 125 l 749 125 l 749 0 l 633 0 "},"!":{"ha":344,"x_min":114,"x_max":229,"o":"m 142 276 l 114 682 l 114 1013 l 229 1013 l 229 682 l 201 276 l 142 276 m 115 0 l 115 126 l 228 126 l 228 0 l 115 0 "},"¡":{"ha":344,"x_min":115,"x_max":231,"o":"m 203 451 l 231 46 l 231 -285 l 115 -285 l 115 46 l 143 451 l 203 451 m 229 728 l 229 601 l 117 601 l 117 728 l 229 728 "},"?":{"ha":751,"x_min":64,"x_max":685,"o":"m 336 258 l 336 282 q 360 392 336 344 q 418 481 383 440 q 487 563 453 522 q 544 648 521 603 q 568 751 568 693 q 516 885 568 842 q 378 929 464 929 q 227 872 281 929 q 175 726 174 815 l 64 726 q 103 883 64 817 q 215 988 143 950 q 383 1025 288 1025 q 608 952 531 1025 q 685 760 685 879 q 660 639 685 692 q 599 542 635 586 q 526 459 563 499 q 465 376 490 419 q 440 282 440 333 l 440 258 l 336 258 m 332 0 l 332 125 l 447 125 l 447 0 l 332 0 "},"¿":{"ha":751,"x_min":64,"x_max":685,"o":"m 413 471 l 413 447 q 389 337 413 385 q 331 248 365 289 q 262 167 296 207 q 204 81 228 126 q 181 -22 181 36 q 233 -156 181 -112 q 371 -200 285 -200 q 522 -143 468 -200 q 574 3 575 -86 l 685 3 q 645 -154 685 -87 q 533 -258 606 -221 q 365 -296 461 -296 q 141 -223 218 -296 q 64 -31 64 -150 q 89 90 64 38 q 150 187 114 143 q 222 270 186 231 q 283 353 258 310 q 308 447 308 396 l 308 471 l 413 471 m 417 729 l 417 604 l 301 604 l 301 729 l 417 729 "},"·":{"ha":382,"x_min":81,"x_max":301,"o":"m 81 385 q 112 463 81 432 q 192 493 143 493 q 272 463 242 493 q 301 385 301 432 q 272 307 301 338 q 192 276 242 276 q 112 307 143 276 q 81 385 81 338 "},"•":{"ha":474,"x_min":75,"x_max":399,"o":"m 75 385 q 122 499 75 454 q 238 544 168 544 q 355 499 311 544 q 399 385 399 454 q 355 272 399 317 q 238 226 311 226 q 122 272 168 226 q 75 385 75 317 "},"*":{"ha":451,"x_min":43,"x_max":408,"o":"m 196 625 l 196 701 l 211 793 l 138 736 l 72 697 l 43 747 l 108 786 l 193 819 l 108 854 l 44 890 l 72 940 l 138 904 l 211 847 l 196 939 l 196 1013 l 254 1013 l 254 939 l 240 847 l 314 904 l 379 940 l 407 890 l 343 854 l 260 819 l 343 786 l 408 747 l 379 697 l 314 736 l 240 793 l 254 701 l 254 625 l 196 625 "},"#":{"ha":914,"x_min":49,"x_max":865,"o":"m 215 0 l 215 283 l 49 283 l 49 372 l 215 372 l 215 664 l 49 664 l 49 751 l 215 751 l 215 1013 l 315 1013 l 315 751 l 606 751 l 606 1013 l 704 1013 l 704 751 l 865 751 l 865 664 l 704 664 l 704 372 l 865 372 l 865 283 l 704 283 l 704 0 l 606 0 l 606 283 l 315 283 l 315 0 l 215 0 m 315 372 l 606 372 l 606 664 l 315 664 l 315 372 "},"/":{"ha":660,"x_min":42,"x_max":589,"o":"m 42 -112 l 481 1013 l 589 1013 l 153 -112 l 42 -112 "},"\\":{"ha":660,"x_min":71,"x_max":618,"o":"m 507 -112 l 71 1013 l 179 1013 l 618 -112 l 507 -112 "},"(":{"ha":467,"x_min":71,"x_max":425,"o":"m 325 -232 q 189 -51 246 -158 q 101 181 132 56 q 71 435 71 306 q 101 689 71 564 q 189 921 132 814 q 325 1101 246 1028 l 425 1101 q 294 919 349 1026 q 211 688 240 813 q 182 435 182 564 q 213 174 182 300 q 298 -56 243 49 q 425 -232 353 -160 l 325 -232 "},")":{"ha":467,"x_min":42,"x_max":396,"o":"m 142 1101 q 278 921 221 1028 q 365 689 335 814 q 396 435 396 564 q 365 181 396 306 q 278 -51 335 56 q 142 -232 221 -158 l 42 -232 q 172 -50 118 -157 q 256 181 226 57 q 285 435 285 306 q 254 695 285 569 q 169 925 224 821 q 42 1101 114 1029 l 142 1101 "},"{":{"ha":515,"x_min":56,"x_max":503,"o":"m 275 -232 q 206 -205 228 -232 q 183 -139 183 -178 l 183 271 q 157 356 183 326 q 96 385 131 385 l 56 385 l 56 476 l 96 476 q 157 507 131 476 q 183 593 183 538 l 183 1008 q 206 1075 183 1049 q 275 1101 228 1101 l 503 1101 l 503 1013 l 289 1013 l 289 590 q 258 480 289 519 q 185 436 226 440 l 185 431 q 261 380 233 422 q 289 274 289 338 l 289 -143 l 503 -143 l 503 -232 l 275 -232 "},"}":{"ha":515,"x_min":13,"x_max":460,"o":"m 240 1101 q 310 1074 288 1101 q 332 1008 332 1047 l 332 599 q 358 514 332 543 q 419 485 385 485 l 460 485 l 460 393 l 419 393 q 358 363 385 393 q 332 276 332 332 l 332 -139 q 310 -206 332 -179 q 240 -232 288 -232 l 13 -232 l 13 -143 l 226 -143 l 226 279 q 258 390 226 350 q 331 433 289 429 l 331 439 q 254 490 282 447 q 226 596 226 532 l 226 1013 l 13 1013 l 13 1101 l 240 1101 "},"[":{"ha":463,"x_min":129,"x_max":449,"o":"m 129 -232 l 129 1101 l 449 1101 l 449 1013 l 236 1013 l 236 -143 l 449 -143 l 449 -232 l 129 -232 "},"]":{"ha":463,"x_min":14,"x_max":333,"o":"m 333 1101 l 333 -232 l 14 -232 l 14 -143 l 226 -143 l 226 1013 l 14 1013 l 14 1101 l 333 1101 "},"-":{"ha":482,"x_min":42,"x_max":440,"o":"m 42 317 l 42 413 l 440 413 l 440 317 l 42 317 "},"–":{"ha":633,"x_min":42,"x_max":592,"o":"m 42 317 l 42 413 l 592 413 l 592 317 l 42 317 "},"—":{"ha":863,"x_min":42,"x_max":821,"o":"m 42 317 l 42 413 l 821 413 l 821 317 l 42 317 "},"_":{"ha":488,"x_min":0,"x_max":488,"o":"m 0 -96 l 0 0 l 488 0 l 488 -96 l 0 -96 "},"‚":{"ha":269,"x_min":51,"x_max":189,"o":"m 51 -215 l 51 -151 l 69 -151 q 114 -127 101 -149 q 126 -72 126 -106 l 126 0 l 74 0 l 74 125 l 189 125 l 189 -79 q 161 -181 189 -150 q 81 -214 133 -211 l 51 -215 "},"„":{"ha":499,"x_min":51,"x_max":418,"o":"m 51 -215 l 51 -151 l 69 -151 q 114 -127 101 -149 q 126 -72 126 -106 l 126 0 l 74 0 l 74 125 l 189 125 l 189 -79 q 161 -181 189 -150 q 81 -214 133 -211 l 51 -215 m 281 -215 l 281 -151 l 299 -151 q 343 -127 331 -149 q 356 -72 356 -106 l 356 0 l 303 0 l 303 125 l 418 125 l 418 -79 q 390 -181 418 -150 q 310 -214 363 -211 l 281 -215 "},"“":{"ha":499,"x_min":81,"x_max":447,"o":"m 447 1013 l 447 949 l 429 949 q 385 924 397 946 q 372 869 372 903 l 372 797 l 425 797 l 425 672 l 310 672 l 310 876 q 338 978 310 947 q 418 1011 365 1008 l 447 1013 m 218 1013 l 218 949 l 200 949 q 156 924 168 946 q 143 869 143 903 l 143 797 l 196 797 l 196 672 l 81 672 l 81 876 q 108 978 81 947 q 189 1011 136 1008 l 218 1013 "},"”":{"ha":499,"x_min":51,"x_max":418,"o":"m 51 672 l 51 736 l 69 736 q 114 760 101 739 q 126 815 126 782 l 126 888 l 74 888 l 74 1013 l 189 1013 l 189 808 q 161 707 189 738 q 81 674 133 676 l 51 672 m 281 672 l 281 736 l 299 736 q 343 760 331 739 q 356 815 356 782 l 356 888 l 303 888 l 303 1013 l 418 1013 l 418 808 q 390 707 418 738 q 310 674 363 676 l 281 672 "},"‘":{"ha":269,"x_min":81,"x_max":218,"o":"m 218 1013 l 218 949 l 200 949 q 156 924 168 946 q 143 869 143 903 l 143 797 l 196 797 l 196 672 l 81 672 l 81 876 q 108 978 81 947 q 189 1011 136 1008 l 218 1013 "},"’":{"ha":269,"x_min":51,"x_max":189,"o":"m 51 672 l 51 736 l 69 736 q 114 760 101 739 q 126 815 126 782 l 126 888 l 74 888 l 74 1013 l 189 1013 l 189 808 q 161 707 189 738 q 81 674 133 676 l 51 672 "},"«":{"ha":601,"x_min":49,"x_max":563,"o":"m 218 0 l 49 365 l 218 729 l 317 729 l 154 365 l 317 0 l 218 0 m 464 0 l 294 365 l 464 729 l 563 729 l 400 365 l 563 0 l 464 0 "},"»":{"ha":601,"x_min":39,"x_max":553,"o":"m 383 729 l 553 364 l 383 0 l 285 0 l 447 364 l 285 729 l 383 729 m 138 729 l 307 364 l 138 0 l 39 0 l 201 364 l 39 729 l 138 729 "},"‹":{"ha":356,"x_min":49,"x_max":317,"o":"m 218 0 l 49 365 l 218 729 l 317 729 l 154 365 l 317 0 l 218 0 "},"›":{"ha":356,"x_min":39,"x_max":307,"o":"m 138 729 l 307 364 l 138 0 l 39 0 l 201 364 l 39 729 l 138 729 "},"\"":{"ha":539,"x_min":90,"x_max":449,"o":"m 167 589 l 114 589 l 90 819 l 90 1013 l 190 1013 l 190 819 l 167 589 m 425 589 l 372 589 l 349 819 l 349 1013 l 449 1013 l 449 819 l 425 589 "},"'":{"ha":281,"x_min":90,"x_max":190,"o":"m 167 589 l 114 589 l 90 819 l 90 1013 l 190 1013 l 190 819 l 167 589 "}," ":{"ha":318,"x_min":0,"x_max":0,"o":""}," ":{"ha":318,"x_min":0,"x_max":0,"o":""},"\r":{"ha":317,"x_min":0,"x_max":0,"o":""},"€":{"ha":1151,"x_min":58,"x_max":1094,"o":"m 58 346 l 58 414 l 154 414 q 149 506 149 458 q 154 599 149 554 l 58 599 l 58 667 l 168 667 q 334 928 210 833 q 639 1024 458 1024 q 859 981 763 1024 q 1017 861 956 939 q 1094 676 1079 783 l 971 676 q 863 851 950 783 q 639 918 775 918 q 419 852 508 918 q 296 667 331 786 l 679 667 l 668 599 l 281 599 q 274 506 274 554 q 281 414 274 457 l 642 414 l 631 346 l 294 346 q 419 159 331 225 q 639 93 508 93 q 864 160 775 93 q 971 339 953 228 l 1094 338 q 1019 153 1081 232 q 860 31 958 74 q 639 -12 763 -12 q 333 83 458 -12 q 167 346 208 179 l 58 346 "},"₿":{"ha":946,"x_min":129,"x_max":886,"o":"m 129 0 l 129 1013 l 301 1013 l 301 1131 l 376 1131 l 376 1013 l 521 1013 l 521 1131 l 596 1131 l 596 1011 q 792 931 724 1001 q 860 753 860 861 q 818 610 860 672 q 693 526 776 547 l 693 521 q 838 436 789 503 q 886 282 886 369 q 810 89 886 164 q 596 3 735 14 l 596 -118 l 521 -118 l 521 0 l 376 0 l 376 -118 l 301 -118 l 301 0 l 129 0 m 246 565 l 547 565 q 690 613 642 565 q 738 736 738 660 q 681 869 738 822 q 531 917 625 917 l 246 917 l 246 565 m 246 96 l 535 96 q 704 149 647 96 q 761 290 761 203 q 708 424 761 376 q 553 472 654 472 l 246 472 l 246 96 "},"¢":{"ha":785,"x_min":58,"x_max":726,"o":"m 354 -118 l 354 -10 q 138 108 218 8 q 58 364 58 208 q 138 617 58 517 q 354 736 218 718 l 354 846 l 432 846 l 432 740 q 576 703 513 736 q 678 615 639 671 q 724 485 717 558 l 614 485 q 551 597 601 557 q 432 643 501 638 l 432 85 q 559 138 510 92 q 617 256 608 185 l 726 256 q 637 67 718 139 q 432 -11 556 -4 l 432 -118 l 354 -118 m 172 363 q 222 176 172 247 q 354 89 271 106 l 354 639 q 219 547 267 621 q 172 363 172 472 "},"¤":{"ha":825,"x_min":47,"x_max":778,"o":"m 114 119 l 47 185 l 190 331 q 142 483 142 397 q 156 569 142 529 q 192 640 169 610 l 49 783 l 115 851 l 263 700 q 331 732 292 719 q 413 744 369 744 q 492 733 453 744 q 563 700 532 722 l 711 851 l 778 783 l 632 640 q 682 483 682 572 q 669 403 682 443 q 632 331 657 363 l 778 185 l 711 119 l 564 269 q 413 224 499 224 q 331 235 369 224 q 261 268 293 247 l 114 119 m 413 317 q 535 365 486 317 q 585 485 585 413 q 535 606 585 558 q 413 654 486 654 q 290 606 339 654 q 240 485 240 558 q 289 364 240 411 q 413 317 338 317 "},"$":{"ha":882,"x_min":64,"x_max":815,"o":"m 399 -118 l 399 -11 q 148 90 229 0 q 64 315 67 181 l 186 315 q 240 157 189 218 q 399 85 290 96 l 399 474 q 230 524 300 493 q 124 607 160 554 q 88 746 88 660 q 169 940 88 865 q 399 1022 251 1014 l 399 1131 l 483 1131 l 483 1022 q 704 931 626 1010 q 783 731 782 853 l 664 731 q 612 866 660 817 q 483 926 564 915 l 483 575 q 608 545 549 563 q 715 496 668 528 q 788 410 761 464 q 815 272 815 357 q 731 75 815 153 q 483 -11 646 -3 l 483 -118 l 399 -118 m 210 761 q 253 649 210 683 q 399 592 297 614 l 399 929 q 259 877 308 922 q 210 761 210 832 m 693 261 q 646 390 693 349 q 483 457 599 431 l 483 83 q 635 134 578 90 q 693 261 693 178 "},"₺":{"ha":846,"x_min":26,"x_max":800,"o":"m 157 0 l 157 417 l 26 365 l 26 456 l 157 508 l 157 657 l 26 606 l 26 694 l 157 750 l 157 1013 l 269 1013 l 269 793 l 546 904 l 546 814 l 269 701 l 269 551 l 546 664 l 546 574 l 269 461 l 269 108 q 561 204 460 110 q 685 456 663 299 l 800 456 q 632 115 775 231 q 257 0 489 0 l 157 0 "},"₹":{"ha":886,"x_min":129,"x_max":888,"o":"m 658 0 q 644 22 653 4 q 631 64 635 39 l 599 257 q 561 359 589 325 q 494 405 533 393 q 408 417 456 417 l 129 417 l 129 508 l 424 508 q 594 553 538 508 q 658 675 650 597 l 129 675 l 129 747 l 660 747 q 588 876 646 835 q 428 918 529 918 l 129 918 l 129 1013 l 888 1013 l 888 932 l 664 932 l 664 926 q 744 858 711 907 q 782 750 778 810 l 888 750 l 888 671 l 782 671 q 715 533 772 588 q 572 461 658 479 l 572 453 q 722 274 697 426 l 750 83 q 763 37 754 53 q 782 17 772 21 l 782 0 l 658 0 "},"₪":{"ha":1108,"x_min":129,"x_max":979,"o":"m 511 0 q 418 27 451 0 q 385 128 385 54 l 385 781 l 476 781 l 476 97 l 876 97 l 876 1013 l 979 1013 l 979 0 l 511 0 m 129 0 l 129 1013 l 599 1013 q 690 986 657 1013 q 724 886 724 960 l 724 233 l 632 233 l 632 917 l 232 917 l 232 0 l 129 0 "},"£":{"ha":839,"x_min":31,"x_max":781,"o":"m 31 0 l 31 100 l 147 100 l 147 456 l 31 456 l 31 546 l 147 546 l 147 729 q 232 947 147 869 q 457 1024 317 1024 q 678 947 597 1024 q 758 736 758 869 l 758 697 l 650 697 l 650 728 q 598 873 650 824 q 457 922 546 922 q 310 869 360 922 q 261 726 261 817 l 261 546 l 556 546 l 556 456 l 261 456 l 261 100 l 681 100 l 681 264 l 781 264 l 781 0 l 31 0 "},"¥":{"ha":819,"x_min":6,"x_max":813,"o":"m 353 0 l 353 190 l 96 190 l 96 275 l 353 275 l 353 418 l 96 418 l 96 503 l 303 503 l 6 1013 l 129 1013 l 406 515 l 413 515 l 690 1013 l 813 1013 l 518 503 l 722 503 l 722 418 l 467 418 l 467 275 l 722 275 l 722 190 l 467 190 l 467 0 l 353 0 "},"+":{"ha":760,"x_min":49,"x_max":711,"o":"m 332 171 l 332 456 l 49 456 l 49 547 l 332 547 l 332 832 l 426 832 l 426 547 l 711 547 l 711 456 l 426 456 l 426 171 l 332 171 "},"−":{"ha":925,"x_min":132,"x_max":793,"o":"m 132 456 l 132 547 l 793 547 l 793 456 l 132 456 "},"×":{"ha":808,"x_min":119,"x_max":690,"o":"m 183 215 l 119 279 l 340 501 l 119 722 l 183 786 l 404 565 l 626 786 l 690 722 l 468 501 l 690 279 l 626 215 l 404 438 l 183 215 "},"÷":{"ha":910,"x_min":117,"x_max":794,"o":"m 401 668 l 401 781 l 511 781 l 511 668 l 401 668 m 117 456 l 117 547 l 794 547 l 794 456 l 117 456 m 401 222 l 401 335 l 511 335 l 511 222 l 401 222 "},"=":{"ha":925,"x_min":132,"x_max":793,"o":"m 132 613 l 132 703 l 793 703 l 793 613 l 132 613 m 132 299 l 132 390 l 793 390 l 793 299 l 132 299 "},"≠":{"ha":904,"x_min":122,"x_max":783,"o":"m 222 121 l 310 299 l 122 299 l 122 390 l 351 390 l 463 613 l 122 613 l 122 703 l 504 703 l 593 882 l 685 882 l 597 703 l 783 703 l 783 613 l 556 613 l 443 390 l 783 390 l 783 299 l 403 299 l 315 121 l 222 121 "},">":{"ha":954,"x_min":139,"x_max":817,"o":"m 139 163 l 139 274 l 707 496 l 707 506 l 139 728 l 139 840 l 817 565 l 817 436 l 139 163 "},"<":{"ha":954,"x_min":139,"x_max":817,"o":"m 817 163 l 139 436 l 139 565 l 817 840 l 817 728 l 247 506 l 247 496 l 817 274 l 817 163 "},"≥":{"ha":951,"x_min":138,"x_max":815,"o":"m 138 194 l 138 297 l 707 518 l 707 525 l 138 743 l 138 846 l 815 585 l 815 458 l 138 194 m 138 0 l 138 85 l 815 85 l 815 0 l 138 0 "},"≤":{"ha":951,"x_min":138,"x_max":815,"o":"m 815 194 l 138 458 l 138 585 l 815 846 l 815 743 l 246 525 l 246 518 l 815 297 l 815 194 m 138 0 l 138 85 l 815 85 l 815 0 l 138 0 "},"±":{"ha":861,"x_min":92,"x_max":769,"o":"m 383 238 l 383 492 l 92 492 l 92 582 l 383 582 l 383 836 l 478 836 l 478 582 l 769 582 l 769 492 l 478 492 l 478 238 l 383 238 m 92 0 l 92 85 l 769 85 l 769 0 l 92 0 "},"≈":{"ha":901,"x_min":194,"x_max":711,"o":"m 565 364 q 475 383 518 364 q 395 420 432 401 q 326 439 358 439 q 278 415 294 439 q 264 354 261 390 l 199 354 q 199 413 196 388 q 211 458 203 439 l 199 458 q 212 565 194 525 q 260 622 229 604 q 324 639 290 639 q 407 621 368 639 q 484 584 446 603 q 561 565 522 565 q 619 589 600 565 q 639 653 639 613 l 704 653 q 692 550 707 592 l 704 550 q 669 407 711 450 q 565 364 626 364 m 565 471 q 475 489 518 471 q 395 524 432 507 q 326 542 358 542 q 292 532 307 542 q 325 536 308 536 q 408 518 368 536 q 485 481 447 500 q 561 463 522 463 q 610 476 590 463 q 565 471 589 471 "},"¬":{"ha":926,"x_min":133,"x_max":793,"o":"m 704 207 l 704 474 l 133 474 l 133 564 l 793 564 l 793 207 l 704 207 "},"~":{"ha":769,"x_min":129,"x_max":643,"o":"m 133 406 q 147 516 129 476 q 197 572 165 556 q 260 588 228 588 q 342 569 303 588 q 419 533 382 551 q 496 515 457 515 q 572 603 575 515 l 639 603 q 624 492 643 533 q 571 434 604 451 q 500 417 538 417 q 410 435 453 417 q 330 472 367 454 q 261 490 293 490 q 212 466 229 490 q 199 406 194 442 l 133 406 "},"^":{"ha":578,"x_min":42,"x_max":536,"o":"m 42 657 l 231 1013 l 347 1013 l 536 657 l 426 657 l 289 918 l 150 657 l 42 657 "},"∞":{"ha":1239,"x_min":58,"x_max":1182,"o":"m 329 214 q 186 251 247 214 q 92 355 125 289 q 58 504 58 421 q 92 653 58 586 q 186 760 125 719 q 328 800 247 800 q 451 769 399 800 q 546 690 504 739 q 621 585 588 642 q 695 690 654 642 q 790 769 736 739 q 914 800 844 800 q 1056 760 996 800 q 1149 652 1115 719 q 1182 504 1182 585 q 1149 359 1182 425 q 1056 253 1115 293 q 914 214 996 214 q 742 275 811 214 q 621 428 674 336 q 545 322 588 371 q 450 243 503 272 q 329 214 397 214 m 333 318 q 455 366 401 318 q 565 507 508 414 q 456 646 508 597 q 332 694 404 694 q 210 641 256 694 q 165 507 165 588 q 211 370 165 422 q 333 318 257 318 m 907 318 q 1030 373 983 318 q 1076 507 1076 428 q 1030 640 1076 586 q 907 694 983 694 q 783 646 835 694 q 675 507 732 597 q 785 367 733 417 q 907 318 836 318 "},"∅":{"ha":1099,"x_min":42,"x_max":1057,"o":"m 550 -10 q 352 28 444 -10 q 190 135 260 65 q 81 299 121 204 q 42 508 42 394 q 81 715 42 621 q 190 878 121 810 q 352 985 260 947 q 550 1022 444 1022 q 747 985 656 1022 q 908 878 839 947 q 1017 715 978 810 q 1057 508 1057 621 q 1017 299 1057 394 q 908 135 978 204 q 747 28 839 65 q 550 -10 656 -10 m 150 299 l 918 769 q 762 913 858 860 q 550 965 665 965 q 378 931 458 965 q 235 836 297 897 q 139 692 174 775 q 104 508 104 608 q 116 399 104 451 q 150 299 128 346 m 550 47 q 722 81 642 47 q 863 178 801 115 q 960 324 925 240 q 994 508 994 408 q 947 718 994 621 l 178 250 q 337 102 239 157 q 550 47 435 47 "},"∫":{"ha":540,"x_min":13,"x_max":528,"o":"m 13 -210 l 13 -115 l 213 -115 l 213 894 q 242 981 213 950 q 324 1013 272 1013 l 528 1013 l 528 917 l 326 917 l 326 -96 q 300 -178 326 -146 q 215 -210 274 -210 l 13 -210 "},"∏":{"ha":1081,"x_min":129,"x_max":950,"o":"m 129 -210 l 129 1013 l 950 1013 l 950 -210 l 832 -210 l 832 904 l 247 904 l 247 -210 l 129 -210 "},"∑":{"ha":936,"x_min":129,"x_max":807,"o":"m 129 -210 l 129 -86 l 492 396 l 492 408 l 129 889 l 129 1013 l 807 1013 l 807 900 l 275 900 l 275 893 l 649 401 l 275 -90 l 275 -97 l 807 -97 l 807 -210 l 129 -210 "},"√":{"ha":892,"x_min":13,"x_max":878,"o":"m 338 -210 l 126 456 l 13 456 l 13 561 l 218 561 l 408 -71 l 415 -71 l 751 1013 l 878 1013 l 485 -210 l 338 -210 "},"%":{"ha":1183,"x_min":63,"x_max":1121,"o":"m 225 0 l 868 1013 l 958 1013 l 315 0 l 225 0 m 263 456 q 116 529 169 456 q 63 733 63 603 q 118 936 63 865 q 265 1007 174 1007 q 409 935 356 1007 q 463 732 463 863 q 408 526 463 597 q 263 456 353 456 m 264 528 q 347 575 317 528 q 378 732 378 622 q 347 888 378 842 q 264 935 317 935 q 179 888 211 935 q 147 732 147 842 q 178 575 147 622 q 264 528 210 528 m 922 -6 q 775 67 829 -6 q 721 271 721 140 q 776 474 721 403 q 924 546 832 546 q 1067 474 1014 546 q 1121 269 1121 401 q 1066 65 1121 136 q 922 -6 1011 -6 m 922 67 q 1004 113 974 67 q 1035 269 1035 160 q 1004 427 1035 381 q 922 474 974 474 q 838 427 869 474 q 806 269 806 381 q 838 113 806 160 q 922 67 869 67 "},"‰":{"ha":1660,"x_min":63,"x_max":1597,"o":"m 225 0 l 868 1013 l 958 1013 l 315 0 l 225 0 m 263 456 q 116 529 169 456 q 63 733 63 603 q 118 936 63 865 q 265 1007 174 1007 q 409 935 356 1007 q 463 732 463 863 q 408 526 463 597 q 263 456 353 456 m 264 528 q 347 575 317 528 q 378 732 378 622 q 347 888 378 842 q 264 935 317 935 q 179 888 211 935 q 147 732 147 842 q 178 575 147 622 q 264 528 210 528 m 922 -6 q 775 67 829 -6 q 721 271 721 140 q 776 474 721 403 q 924 546 832 546 q 1067 474 1014 546 q 1121 269 1121 401 q 1066 65 1121 136 q 922 -6 1011 -6 m 1397 -6 q 1251 67 1304 -6 q 1197 271 1197 140 q 1253 474 1197 403 q 1400 546 1308 546 q 1544 474 1490 546 q 1597 269 1597 401 q 1542 65 1597 136 q 1397 -6 1488 -6 m 922 67 q 1004 113 974 67 q 1035 269 1035 160 q 1004 427 1035 381 q 922 474 974 474 q 838 427 869 474 q 806 269 806 381 q 838 113 806 160 q 922 67 869 67 m 1399 67 q 1481 113 1450 67 q 1511 269 1511 160 q 1481 427 1511 381 q 1399 474 1450 474 q 1314 427 1346 474 q 1282 269 1282 381 q 1314 113 1282 160 q 1399 67 1346 67 "},"↑":{"ha":731,"x_min":93,"x_max":639,"o":"m 315 124 l 315 746 l 93 588 l 93 694 l 365 889 l 639 694 l 639 588 l 417 746 l 417 124 l 315 124 "},"→":{"ha":1036,"x_min":139,"x_max":904,"o":"m 139 557 l 763 557 l 603 779 l 711 779 l 904 507 l 711 235 l 603 235 l 763 457 l 139 457 l 139 557 "},"↓":{"ha":713,"x_min":93,"x_max":639,"o":"m 315 889 l 417 889 l 417 267 l 639 425 l 639 318 l 367 124 l 93 318 l 93 425 l 315 267 l 315 889 "},"←":{"ha":1036,"x_min":132,"x_max":897,"o":"m 897 557 l 897 457 l 274 457 l 433 235 l 325 235 l 132 507 l 325 779 l 433 779 l 274 557 l 897 557 "},"↔":{"ha":1153,"x_min":88,"x_max":1065,"o":"m 282 235 l 88 507 l 282 779 l 389 779 l 229 557 l 922 557 l 764 779 l 871 779 l 1065 507 l 871 235 l 764 235 l 922 457 l 229 457 l 389 235 l 282 235 "},"☹":{"ha":1128,"x_min":42,"x_max":1086,"o":"m 564 -14 q 296 51 414 -14 q 110 235 178 117 q 42 508 42 353 q 110 780 42 664 q 296 961 178 896 q 564 1026 414 1026 q 833 961 715 1026 q 1019 780 951 896 q 1086 508 1086 664 q 1019 235 1086 353 q 833 51 951 117 q 564 -14 715 -14 m 564 44 q 801 103 699 44 q 963 265 904 161 q 1022 508 1022 369 q 963 750 1022 647 q 801 910 904 853 q 564 968 699 968 q 327 910 431 968 q 165 750 224 853 q 106 508 106 647 q 165 265 106 369 q 327 103 224 161 q 564 44 431 44 m 440 544 q 384 571 403 544 q 365 636 365 597 q 387 706 365 683 q 440 729 408 729 q 497 703 479 729 q 515 636 515 676 q 494 567 515 589 q 440 544 474 544 m 689 544 q 633 571 653 544 q 614 636 614 597 q 635 706 614 683 q 689 729 657 729 q 747 703 728 729 q 765 636 765 676 q 744 567 765 589 q 689 544 722 544 m 238 231 q 357 385 269 329 q 563 442 444 442 q 769 385 682 442 q 889 231 856 329 l 831 231 q 728 346 800 304 q 563 388 656 388 q 399 345 469 388 q 296 231 328 303 l 238 231 "},"☺":{"ha":1128,"x_min":42,"x_max":1086,"o":"m 564 -14 q 296 51 414 -14 q 110 235 178 117 q 42 508 42 353 q 110 780 42 664 q 296 961 178 896 q 564 1026 414 1026 q 833 961 715 1026 q 1019 780 951 896 q 1086 508 1086 664 q 1019 235 1086 353 q 833 51 951 117 q 564 -14 715 -14 m 564 44 q 801 103 699 44 q 963 265 904 161 q 1022 508 1022 369 q 963 750 1022 647 q 801 910 904 853 q 564 968 699 968 q 327 910 431 968 q 165 750 224 853 q 106 508 106 647 q 165 265 106 369 q 327 103 224 161 q 564 44 431 44 m 440 544 q 384 571 403 544 q 365 636 365 597 q 387 706 365 683 q 440 729 408 729 q 497 703 479 729 q 515 636 515 676 q 494 567 515 589 q 440 544 474 544 m 689 544 q 633 571 653 544 q 614 636 614 597 q 635 706 614 683 q 689 729 657 729 q 747 703 728 729 q 765 636 765 676 q 744 567 765 589 q 689 544 722 544 m 563 153 q 399 187 472 153 q 281 283 326 221 q 224 426 236 344 l 179 426 l 179 456 l 338 456 l 338 426 l 283 426 q 376 270 299 329 q 563 211 453 211 q 751 270 674 211 q 842 426 828 329 l 790 426 l 790 456 l 949 456 l 949 426 l 903 426 q 844 283 890 344 q 727 187 799 221 q 563 153 656 153 "},"✓":{"ha":1290,"x_min":156,"x_max":1136,"o":"m 438 163 l 156 528 l 228 593 l 446 304 l 1071 843 l 1136 767 l 438 163 "},"@":{"ha":1235,"x_min":58,"x_max":1178,"o":"m 632 -140 q 329 -68 458 -140 q 129 134 200 4 q 58 436 58 264 q 131 744 58 611 q 334 951 204 876 q 636 1025 464 1025 q 917 960 794 1025 q 1108 780 1039 896 q 1178 510 1178 664 q 1146 320 1178 403 q 1056 191 1114 238 q 924 144 999 144 q 818 183 856 144 q 774 289 781 222 l 768 289 q 697 183 746 218 q 590 149 647 149 q 446 214 506 149 q 386 410 386 279 q 449 632 386 549 q 613 715 511 715 q 713 683 669 715 q 772 590 757 650 l 779 590 l 793 700 l 854 700 l 832 372 q 851 255 826 292 q 922 218 875 218 q 1047 298 1000 218 q 1094 504 1094 378 q 1036 742 1094 642 q 874 896 978 842 q 635 950 771 950 q 374 885 483 950 q 205 704 264 819 q 146 440 146 589 q 203 177 146 292 q 371 -1 261 63 q 633 -65 481 -65 q 808 -41 729 -65 q 940 26 886 -17 l 971 -37 q 876 -93 932 -69 q 756 -128 819 -117 q 632 -140 693 -140 m 603 221 q 717 283 675 221 q 764 444 758 346 q 724 594 761 544 q 624 644 686 644 q 508 580 547 644 q 468 414 468 515 q 505 269 468 318 q 603 221 542 221 "},"&":{"ha":990,"x_min":76,"x_max":976,"o":"m 376 -14 q 226 17 294 -14 q 117 108 158 47 q 76 257 76 168 q 136 430 76 350 q 310 560 196 510 q 224 675 256 619 q 192 799 192 731 q 261 963 192 899 q 444 1026 331 1026 q 567 999 514 1026 q 650 922 619 971 q 681 808 681 872 q 619 649 681 715 q 460 550 557 583 l 460 543 l 700 275 q 738 397 725 325 q 753 531 751 468 l 976 531 l 976 447 l 836 447 q 811 319 829 386 q 765 206 793 253 l 950 0 l 814 0 l 696 132 q 557 22 642 58 q 376 -14 472 -14 m 400 604 l 407 604 q 533 682 485 633 q 581 799 581 731 q 543 895 581 857 q 443 933 506 933 q 338 893 375 933 q 300 793 300 853 q 328 695 300 738 q 400 604 357 653 m 188 268 q 247 128 188 175 q 394 81 307 81 q 537 114 476 81 q 632 203 597 147 l 368 497 q 235 401 282 461 q 188 268 188 342 "},"¶":{"ha":992,"x_min":13,"x_max":863,"o":"m 282 -210 l 282 536 q 83 601 154 535 q 13 776 13 667 q 85 951 13 890 q 282 1013 157 1013 l 863 1013 l 863 914 l 744 914 l 744 -210 l 635 -210 l 635 914 l 390 914 l 390 -210 l 282 -210 "},"©":{"ha":1142,"x_min":42,"x_max":1100,"o":"m 42 506 q 108 778 42 661 q 294 959 175 894 q 571 1024 414 1024 q 847 959 728 1024 q 1033 778 967 894 q 1100 506 1100 661 q 1033 233 1100 350 q 847 51 967 117 q 571 -14 728 -14 q 294 51 414 -14 q 108 233 175 117 q 42 506 42 350 m 107 506 q 165 265 107 368 q 328 103 224 161 q 571 46 433 46 q 814 103 710 46 q 976 265 918 161 q 1035 506 1035 368 q 976 747 1035 643 q 814 908 918 850 q 571 965 710 965 q 328 908 433 965 q 165 747 224 850 q 107 506 107 643 m 304 504 q 338 653 304 589 q 433 752 371 717 q 576 788 494 788 q 743 733 676 788 q 817 594 810 679 l 729 594 q 674 683 718 654 q 574 711 629 711 q 442 653 489 711 q 394 504 394 596 q 443 353 394 407 q 572 299 492 299 q 680 332 636 299 q 731 424 724 365 l 818 424 q 744 279 811 335 q 572 224 676 224 q 431 259 492 224 q 338 358 371 294 q 304 504 304 421 "},"®":{"ha":836,"x_min":60,"x_max":778,"o":"m 417 311 q 235 357 315 311 q 107 483 154 403 q 60 669 60 564 q 107 855 60 775 q 235 980 154 935 q 417 1025 317 1025 q 601 980 519 1025 q 730 855 682 935 q 778 669 778 775 q 730 484 778 565 q 601 357 682 403 q 417 311 519 311 m 417 360 q 574 399 504 360 q 685 508 644 439 q 726 668 726 578 q 685 830 726 760 q 574 940 644 900 q 418 979 504 979 q 261 939 331 979 q 151 828 192 899 q 110 668 110 758 q 151 508 110 578 q 262 399 192 439 q 417 360 332 360 m 283 501 l 283 844 l 446 844 q 535 822 499 844 q 572 742 572 799 q 556 685 572 708 q 511 654 539 663 l 511 653 q 565 578 565 640 l 565 540 q 566 523 565 535 q 571 501 567 511 l 500 501 q 496 516 497 508 q 494 543 494 524 l 494 576 q 485 612 494 599 q 444 625 475 625 l 353 625 l 353 501 l 283 501 m 433 790 l 353 790 l 353 674 l 433 674 q 486 691 469 674 q 503 735 503 708 q 433 790 503 790 "},"℗":{"ha":1142,"x_min":42,"x_max":1100,"o":"m 571 -14 q 294 51 414 -14 q 108 233 175 117 q 42 506 42 350 q 108 778 42 661 q 294 959 175 894 q 571 1024 414 1024 q 847 959 728 1024 q 1033 778 967 894 q 1100 506 1100 661 q 1033 233 1100 350 q 847 51 967 117 q 571 -14 728 -14 m 571 46 q 814 103 710 46 q 976 265 918 161 q 1035 506 1035 368 q 976 747 1035 643 q 814 908 918 850 q 571 965 710 965 q 328 908 433 965 q 165 747 224 850 q 107 506 107 643 q 165 265 107 368 q 328 103 224 161 q 571 46 433 46 m 396 231 l 396 782 l 626 782 q 773 736 721 782 q 825 608 825 690 q 774 481 825 529 q 626 433 722 433 l 482 433 l 482 231 l 396 231 m 608 715 l 483 715 l 483 494 l 608 494 q 701 522 667 494 q 736 606 736 550 q 701 689 736 663 q 608 715 667 715 "},"™":{"ha":1017,"x_min":7,"x_max":951,"o":"m 443 581 l 443 1013 l 550 1013 l 693 678 l 699 678 l 842 1013 l 951 1013 l 951 581 l 872 581 l 872 765 l 875 915 l 871 915 l 728 581 l 664 581 l 521 915 l 517 915 l 518 765 l 518 581 l 443 581 m 149 581 l 149 942 l 7 942 l 7 1013 l 375 1013 l 375 942 l 229 942 l 229 581 l 149 581 "},"°":{"ha":564,"x_min":56,"x_max":510,"o":"m 282 593 q 167 620 218 593 q 85 696 115 647 q 56 808 56 744 q 85 922 56 874 q 167 998 115 971 q 282 1025 218 1025 q 399 998 347 1025 q 480 922 450 971 q 510 808 510 874 q 480 696 510 744 q 399 620 450 647 q 282 593 347 593 m 282 675 q 380 712 340 675 q 419 808 419 749 q 380 906 419 869 q 282 942 340 942 q 184 906 224 942 q 144 808 144 869 q 184 712 144 749 q 282 675 224 675 "},"|":{"ha":365,"x_min":132,"x_max":235,"o":"m 132 -93 l 132 1013 l 235 1013 l 235 -93 l 132 -93 "},"¦":{"ha":365,"x_min":132,"x_max":235,"o":"m 132 564 l 132 1013 l 235 1013 l 235 564 l 132 564 m 132 -93 l 132 356 l 235 356 l 235 -93 l 132 -93 "},"̈":{"ha":0,"x_min":56,"x_max":407,"o":"m 56 1060 l 56 1226 l 157 1226 l 157 1060 l 56 1060 m 306 1060 l 306 1226 l 407 1226 l 407 1060 l 306 1060 "},"̇":{"ha":0,"x_min":56,"x_max":168,"o":"m 56 1060 l 56 1229 l 168 1229 l 168 1060 l 56 1060 "},"̀":{"ha":0,"x_min":56,"x_max":257,"o":"m 172 1032 l 56 1226 l 172 1226 l 257 1032 l 172 1032 "},"́":{"ha":0,"x_min":56,"x_max":257,"o":"m 56 1032 l 142 1226 l 257 1226 l 140 1032 l 56 1032 "},"̂":{"ha":0,"x_min":56,"x_max":467,"o":"m 56 1032 l 210 1226 l 311 1226 l 467 1032 l 363 1032 l 261 1163 l 158 1032 l 56 1032 "},"̊":{"ha":0,"x_min":56,"x_max":343,"o":"m 199 1036 q 95 1074 135 1036 q 56 1172 56 1111 q 95 1270 56 1233 q 199 1307 135 1307 q 303 1270 264 1307 q 343 1172 343 1233 q 303 1074 343 1111 q 199 1036 264 1036 m 199 1096 q 253 1117 233 1096 q 274 1172 274 1138 q 253 1226 274 1206 q 199 1246 233 1246 q 144 1226 165 1246 q 124 1172 124 1206 q 144 1117 124 1138 q 199 1096 165 1096 "},"̃":{"ha":0,"x_min":56,"x_max":488,"o":"m 351 1060 q 287 1070 314 1060 q 235 1092 260 1081 q 182 1103 211 1103 q 138 1092 156 1103 q 103 1058 119 1081 l 56 1090 q 116 1165 83 1144 q 188 1186 149 1186 q 246 1175 218 1186 q 301 1153 274 1164 q 360 1143 329 1143 q 406 1157 388 1143 q 438 1189 425 1171 l 488 1157 q 427 1083 461 1106 q 351 1060 393 1060 "},"̧":{"ha":0,"x_min":50,"x_max":331,"o":"m 192 -311 q 90 -281 129 -311 q 50 -197 51 -250 l 126 -197 q 144 -234 128 -219 q 186 -249 160 -249 q 232 -231 215 -249 q 249 -186 249 -214 q 231 -140 249 -156 q 183 -125 214 -125 l 146 -125 l 146 15 l 215 15 l 215 -78 q 301 -110 272 -81 q 331 -189 331 -140 q 292 -279 331 -247 q 192 -311 253 -311 "},"̷":{"ha":0,"x_min":103,"x_max":846,"o":"m 103 -83 l 763 813 l 846 813 l 189 -83 l 103 -83 "},"̸":{"ha":0,"x_min":69,"x_max":993,"o":"m 69 -112 l 899 1013 l 993 1013 l 168 -112 l 69 -112 "},"¨":{"ha":463,"x_min":56,"x_max":407,"o":"m 56 1060 l 56 1226 l 157 1226 l 157 1060 l 56 1060 m 306 1060 l 306 1226 l 407 1226 l 407 1060 l 306 1060 "},"˙":{"ha":224,"x_min":56,"x_max":168,"o":"m 56 1060 l 56 1229 l 168 1229 l 168 1060 l 56 1060 "},"`":{"ha":313,"x_min":56,"x_max":257,"o":"m 172 1032 l 56 1226 l 172 1226 l 257 1032 l 172 1032 "},"´":{"ha":313,"x_min":56,"x_max":257,"o":"m 56 1032 l 142 1226 l 257 1226 l 140 1032 l 56 1032 "},"˝":{"ha":542,"x_min":56,"x_max":486,"o":"m 56 1032 l 142 1226 l 254 1226 l 138 1032 l 56 1032 m 268 1032 l 369 1226 l 486 1226 l 356 1032 l 268 1032 "},"ˆ":{"ha":522,"x_min":56,"x_max":467,"o":"m 56 1032 l 210 1226 l 311 1226 l 467 1032 l 363 1032 l 261 1163 l 158 1032 l 56 1032 "},"ˇ":{"ha":522,"x_min":56,"x_max":467,"o":"m 210 1032 l 56 1226 l 158 1226 l 261 1094 l 363 1226 l 467 1226 l 311 1032 l 210 1032 "},"˘":{"ha":518,"x_min":56,"x_max":463,"o":"m 260 1022 q 110 1075 163 1022 q 56 1221 57 1128 l 140 1221 q 172 1127 140 1160 q 260 1094 203 1094 q 348 1127 317 1094 q 378 1221 379 1160 l 463 1221 q 410 1075 463 1128 q 260 1022 357 1022 "},"˚":{"ha":399,"x_min":56,"x_max":343,"o":"m 199 1036 q 95 1074 135 1036 q 56 1172 56 1111 q 95 1270 56 1233 q 199 1307 135 1307 q 303 1270 264 1307 q 343 1172 343 1233 q 303 1074 343 1111 q 199 1036 264 1036 m 199 1096 q 253 1117 233 1096 q 274 1172 274 1138 q 253 1226 274 1206 q 199 1246 233 1246 q 144 1226 165 1246 q 124 1172 124 1206 q 144 1117 124 1138 q 199 1096 165 1096 "},"˜":{"ha":543,"x_min":56,"x_max":488,"o":"m 351 1060 q 287 1070 314 1060 q 235 1092 260 1081 q 182 1103 211 1103 q 138 1092 156 1103 q 103 1058 119 1081 l 56 1090 q 116 1165 83 1144 q 188 1186 149 1186 q 246 1175 218 1186 q 301 1153 274 1164 q 360 1143 329 1143 q 406 1157 388 1143 q 438 1189 425 1171 l 488 1157 q 427 1083 461 1106 q 351 1060 393 1060 "},"¯":{"ha":578,"x_min":56,"x_max":522,"o":"m 56 1069 l 56 1157 l 522 1157 l 522 1069 l 56 1069 "},"¸":{"ha":385,"x_min":50,"x_max":331,"o":"m 192 -311 q 90 -281 129 -311 q 50 -197 51 -250 l 126 -197 q 144 -234 128 -219 q 186 -249 160 -249 q 232 -231 215 -249 q 249 -186 249 -214 q 231 -140 249 -156 q 183 -125 214 -125 l 146 -125 l 146 15 l 215 15 l 215 -78 q 301 -110 272 -81 q 331 -189 331 -140 q 292 -279 331 -247 q 192 -311 253 -311 "},"˛":{"ha":339,"x_min":50,"x_max":283,"o":"m 190 -239 q 88 -206 125 -239 q 50 -118 50 -174 q 79 -31 50 -67 q 149 17 108 6 l 214 0 q 157 -37 179 -11 q 135 -97 135 -64 q 156 -149 135 -131 q 211 -167 176 -167 q 251 -162 231 -167 q 283 -153 271 -158 l 283 -222 q 190 -239 253 -239 "}}}
